<?xml version="1.0" encoding="utf-8"?>
<!-- Generator: Adobe Illustrator 28.1.0, SVG Export Plug-In . SVG Version: 6.00 Build 0)  -->
<svg version="1.1" id="Layer_1" xmlns="http://www.w3.org/2000/svg" xmlns:xlink="http://www.w3.org/1999/xlink" x="0px" y="0px"
	 viewBox="0 0 32 32" style="enable-background:new 0 0 32 32;" xml:space="preserve">
<style type="text/css">
	.st0{clip-path:url(#SVGID_00000110438091944485651780000015378387709121855414_);}
	.st1{fill:#FFFFFF;}
	.st2{fill:#EA2627;}
	.st3{fill:#A6A8AB;}
	.st4{clip-path:url(#SVGID_00000149382759216819814380000008286614175744869801_);}
	.st5{fill-rule:evenodd;clip-rule:evenodd;fill:#EA2627;}
	.st6{clip-path:url(#SVGID_00000160880455974686846990000016243509258068044939_);}
	.st7{clip-path:url(#SVGID_00000129196309878158148740000011733144898437524146_);}
</style>
<g>
	<defs>
		<circle id="SVGID_00000075851632043661299550000012368090994017706927_" cx="16" cy="16" r="16"/>
	</defs>
	<clipPath id="SVGID_00000133527227561933298010000010634117897582663322_">
		<use xlink:href="#SVGID_00000075851632043661299550000012368090994017706927_"  style="overflow:visible;"/>
	</clipPath>
	<g style="clip-path:url(#SVGID_00000133527227561933298010000010634117897582663322_);">
		<circle class="st1" cx="16" cy="16" r="16.1"/>
		<g id="XMLID_00000029014415402062619970000013723862061119001533_">
			<g id="XMLID_00000124148489865030817040000006797230511071176363_">
				<path id="XMLID_00000078735986422484676820000004783747545141564565_" class="st2" d="M32.1,16.1c0-8.9-7.2-16.1-16.1-16.1
					C7.1-0.1-0.1,7.2-0.1,16.1c0,8.1,5.9,14.8,13.6,16c0,0,0,0,0,0c0.1,0,0.2,0,0.3,0c0.3-0.6,1.2-2.6,1.2-5.8h0
					c0-2.5-1.1-3.4-2.8-3.2S8,24.2,6,23.5c0,0-0.9-0.4-1.5-1.5c-0.9-1.8-1.5-3.8-1.5-6C3,8.9,8.8,3,16,3c7.2,0,13,5.8,13,13
					c0,1.8-0.4,3.6-1.1,5.2l0,0c0,0,0,0.1,0,0.1c-0.1,0.2-0.2,0.4-0.3,0.6c-0.7,1.1-1.6,1.6-1.6,1.6c-1.9,0.7-4.6-0.3-6.3-0.5
					c-1.7-0.2-2.8,0.7-2.8,3.2c0,1.1,0.1,2,0.3,2.8c0,0,0.8,2.6,1,3c0,0,0,0,0,0c0,0,0,0,0,0c0.1,0,0.2,0,0.3-0.1c0,0,0,0,0,0
					c1.4-0.2,2.8-0.6,4.1-1.2c0,0,0.1,0,0.1,0C28.2,28.2,32.1,22.6,32.1,16.1z"/>
			</g>
		</g>
		<g>
			<path id="XMLID_00000118366529106253586710000000667755759659895723_" class="st3" d="M16,14.7c0,0,1.9,1.7,1.9,3.8
				S16,22.3,16,22.3s-2-1.5-2-3.8S16,14.7,16,14.7z"/>
			<path id="XMLID_00000077286422580992554310000007528001999385850009_" class="st3" d="M23.5,10c0,0,0.5,2.3-0.7,3.8
				s-3.5,1.7-3.5,1.7s-0.6-2.2,0.6-3.9S23.5,10,23.5,10z"/>
			<path id="XMLID_00000091702487089084116890000006169101861849971881_" class="st3" d="M9,10c0,0-0.5,2.3,0.7,3.8s3.5,1.7,3.5,1.7
				s0.6-2.2-0.6-3.9S9,10,9,10z"/>
			<path id="XMLID_00000039849966291935120070000013013793194605581739_" class="st3" d="M4.6,19.6c0,0,2.2,1.9,4.6,1.7
				c2.4-0.3,4.1-2.7,4.1-2.7s-2-2-4.6-1.7S4.6,19.6,4.6,19.6z"/>
			<path id="XMLID_00000057143203377599826440000002892520821368786831_" class="st3" d="M16,13.3c0,0,2.2-1.9,2.2-4.3
				S16,4.7,16,4.7S13.8,6.4,13.7,9C13.7,11.6,16,13.3,16,13.3z"/>
			<path id="XMLID_00000121970858721192647790000011642978988677887894_" class="st3" d="M27.4,19.6c0,0-2.2,1.9-4.6,1.7
				c-2.4-0.3-4.1-2.7-4.1-2.7s2-2,4.6-1.7S27.4,19.6,27.4,19.6z"/>
		</g>
	</g>
</g>
</svg>
