<?xml version="1.0" encoding="UTF-8"?>
<svg id="Layer_1" data-name="Layer 1" xmlns="http://www.w3.org/2000/svg" xmlns:xlink="http://www.w3.org/1999/xlink" viewBox="0 0 16 16">
  <defs>
    <style>
      .cls-1 {
        fill: none;
      }

      .cls-1, .cls-2, .cls-3, .cls-4 {
        stroke-width: 0px;
      }

      .cls-2 {
        fill: #fff;
      }

      .cls-5 {
        clip-path: url(#clippath);
      }

      .cls-3 {
        fill: #a6a8ab;
      }

      .cls-4 {
        fill: #ea2627;
      }
    </style>
    <clipPath id="clippath">
      <circle class="cls-1" cx="8" cy="8" r="8"/>
    </clipPath>
  </defs>
  <g class="cls-5">
    <g>
      <circle class="cls-2" cx="8" cy="8" r="8.04"/>
      <path class="cls-4" d="M16.03,8.03C16.03,3.58,12.43-.04,8-.04S-.04,3.58-.04,8.03c0,4.04,2.95,7.38,6.8,7.98,0,0,0,0,0,0,.05,0,.1.02.15.02.15-.28.62-1.3.62-2.92h0c0-1.24-.53-1.69-1.39-1.58s-2.18.57-3.14.24c0,0-.45-.2-.77-.73-.47-.9-.73-1.92-.73-3.01C1.51,4.43,4.41,1.52,8,1.52s6.49,2.92,6.49,6.52c0,.92-.19,1.8-.54,2.6h0s-.01.03-.02.04c-.05.11-.1.21-.15.31-.33.57-.81.78-.81.78-.97.33-2.29-.13-3.14-.24-.85-.1-1.39.34-1.39,1.58,0,.54.05,1.01.13,1.41,0,0,.38,1.32.48,1.51,0,0,0,0,0,0,0,0,0,0,0,0,.05,0,.1-.02.16-.03,0,0,0,0,0,0,.71-.11,1.4-.32,2.03-.6.02,0,.03-.01.05-.02,2.79-1.27,4.72-4.08,4.72-7.35Z"/>
      <g>
        <path class="cls-3" d="M8.01,7.35s.96.84.96,1.89-.96,1.89-.96,1.89c0,0-1-.76-1-1.89s1-1.89,1-1.89Z"/>
        <path class="cls-3" d="M11.74,5s.25,1.14-.33,1.91-1.75.86-1.75.86c0,0-.31-1.1.31-1.93s1.77-.84,1.77-.84Z"/>
        <path class="cls-3" d="M4.5,5s-.25,1.14.33,1.91,1.75.86,1.75.86c0,0,.31-1.1-.31-1.93s-1.77-.84-1.77-.84Z"/>
        <path class="cls-3" d="M2.29,9.79s1.09.97,2.29.83,2.03-1.35,2.03-1.35c0,0-1-1.02-2.3-.86s-2.02,1.39-2.02,1.39Z"/>
        <path class="cls-3" d="M8,6.66s1.11-.95,1.11-2.16-1.09-2.17-1.09-2.17c0,0-1.14.86-1.15,2.16s1.13,2.17,1.13,2.17Z"/>
        <path class="cls-3" d="M13.7,9.79s-1.09.97-2.29.83-2.03-1.35-2.03-1.35c0,0,1-1.02,2.3-.86s2.02,1.39,2.02,1.39Z"/>
      </g>
    </g>
  </g>
</svg>