<?xml version="1.0" encoding="utf-8"?>
<!-- Generator: Adobe Illustrator 28.1.0, SVG Export Plug-In . SVG Version: 6.00 Build 0)  -->
<svg version="1.1" id="Layer_1" xmlns="http://www.w3.org/2000/svg" xmlns:xlink="http://www.w3.org/1999/xlink" x="0px" y="0px"
	 viewBox="0 0 48 48" style="enable-background:new 0 0 48 48;" xml:space="preserve">
<style type="text/css">
	.st0{clip-path:url(#SVGID_00000096761125045504362860000012493434620493257651_);}
	.st1{fill:#FFFFFF;}
	.st2{fill:#EA2627;}
	.st3{fill:#A6A8AB;}
	.st4{clip-path:url(#SVGID_00000159441018921943705930000003938445074816339349_);}
	.st5{fill-rule:evenodd;clip-rule:evenodd;fill:#EA2627;}
	.st6{clip-path:url(#SVGID_00000063632424921464986440000015182634215000575879_);}
</style>
<g>
	<defs>
		<circle id="SVGID_00000062882685595138365680000004576896866250134682_" cx="24" cy="24" r="24"/>
	</defs>
	<clipPath id="SVGID_00000161592279414884865810000011147199899799910830_">
		<use xlink:href="#SVGID_00000062882685595138365680000004576896866250134682_"  style="overflow:visible;"/>
	</clipPath>
	<g style="clip-path:url(#SVGID_00000161592279414884865810000011147199899799910830_);">
		<circle class="st1" cx="24" cy="24" r="24.1"/>
		<g id="XMLID_00000031183659037420581820000014943699164817883294_">
			<g id="XMLID_00000116954531316031374460000013395134963228537480_">
				<path id="XMLID_00000126304177650867325760000004857685303996502930_" class="st2" d="M48.1,24.1C48.1,10.7,37.3-0.1,24-0.1
					C10.7-0.1-0.1,10.7-0.1,24.1c0,12.1,8.8,22.1,20.4,23.9c0,0,0,0,0,0c0.2,0,0.3,0,0.5,0.1c0.4-0.8,1.9-3.9,1.9-8.8h0
					c0-3.7-1.6-5.1-4.2-4.7s-6.5,1.7-9.4,0.7c0,0-1.3-0.6-2.3-2.2c-1.4-2.7-2.2-5.8-2.2-9C4.5,13.3,13.2,4.5,24,4.5
					c10.7,0,19.5,8.8,19.5,19.6c0,2.8-0.6,5.4-1.6,7.8l0,0c0,0,0,0.1-0.1,0.1c-0.1,0.3-0.3,0.6-0.4,0.9c-1,1.7-2.4,2.3-2.4,2.3
					c-2.9,1-6.9-0.4-9.4-0.7c-2.6-0.3-4.2,1-4.2,4.7c0,1.6,0.2,3,0.4,4.2c0,0,1.2,4,1.4,4.5c0,0,0,0,0,0c0,0,0,0,0,0
					c0.2,0,0.3-0.1,0.5-0.1c0,0,0,0,0,0c2.1-0.3,4.2-0.9,6.1-1.8c0,0,0.1,0,0.1-0.1C42.3,42.4,48.1,33.9,48.1,24.1z"/>
			</g>
		</g>
		<g>
			<path id="XMLID_00000116919989790108359600000000797212751087340732_" class="st3" d="M24,22c0,0,2.9,2.5,2.9,5.7
				S24,33.4,24,33.4s-3-2.3-3-5.7S24,22,24,22z"/>
			<path id="XMLID_00000048484850665452240030000012482119704708875414_" class="st3" d="M35.2,15c0,0,0.7,3.4-1,5.7
				c-1.7,2.3-5.3,2.6-5.3,2.6S28,20,29.9,17.5S35.2,15,35.2,15z"/>
			<path id="XMLID_00000128476145826273686360000009705710838077079455_" class="st3" d="M13.5,15c0,0-0.7,3.4,1,5.7
				s5.3,2.6,5.3,2.6s0.9-3.3-0.9-5.8C16.9,15,13.5,15,13.5,15z"/>
			<path id="XMLID_00000103949741474297531800000001066727660254286983_" class="st3" d="M6.9,29.4c0,0,3.3,2.9,6.9,2.5
				c3.6-0.4,6.1-4.1,6.1-4.1s-3-3.1-6.9-2.6S6.9,29.4,6.9,29.4z"/>
			<path id="XMLID_00000047050153573846352190000005295552668671138492_" class="st3" d="M24,20c0,0,3.3-2.9,3.3-6.5S24.1,7,24.1,7
				s-3.4,2.6-3.5,6.5S24,20,24,20z"/>
			<path id="XMLID_00000172418991840602711570000010375241714931407792_" class="st3" d="M41.1,29.4c0,0-3.3,2.9-6.9,2.5
				c-3.6-0.4-6.1-4.1-6.1-4.1s3-3.1,6.9-2.6S41.1,29.4,41.1,29.4z"/>
		</g>
	</g>
</g>
</svg>
