<?xml version="1.0" encoding="utf-8"?>
<!-- Generator: Adobe Illustrator 28.1.0, SVG Export Plug-In . SVG Version: 6.00 Build 0)  -->
<svg version="1.1" id="Layer_1" xmlns="http://www.w3.org/2000/svg" xmlns:xlink="http://www.w3.org/1999/xlink" x="0px" y="0px"
	 viewBox="0 0 96 96" style="enable-background:new 0 0 96 96;" xml:space="preserve">
<style type="text/css">
	.st0{clip-path:url(#SVGID_00000091711982936518248720000005882479293003656345_);}
	.st1{fill:#FFFFFF;}
	.st2{fill:#EA2627;}
	.st3{fill:#A6A8AB;}
	.st4{clip-path:url(#SVGID_00000007400977235742906500000016783383717808481205_);}
	.st5{fill-rule:evenodd;clip-rule:evenodd;fill:#EA2627;}
	.st6{clip-path:url(#SVGID_00000018207877117832467330000018216348909947690394_);}
</style>
<g>
	<defs>
		<circle id="SVGID_1_" cx="48" cy="47.9" r="48"/>
	</defs>
	<clipPath id="SVGID_00000087371376668114950240000016424834965666761090_">
		<use xlink:href="#SVGID_1_"  style="overflow:visible;"/>
	</clipPath>
	<g style="clip-path:url(#SVGID_00000087371376668114950240000016424834965666761090_);">
		<circle class="st1" cx="48" cy="47.9" r="48.2"/>
		<g id="XMLID_00000122696239965572127330000003842151294828572092_">
			<g id="XMLID_00000151505732695155822730000017406986885662621876_">
				<path id="XMLID_00000047037639460652237260000009353246058799775627_" class="st2" d="M96.2,48.1C96.2,21.4,74.6-0.3,48-0.3
					C21.4-0.3-0.2,21.4-0.2,48.1c0,24.2,17.7,44.3,40.8,47.9c0,0,0,0,0,0c0.3,0,0.6,0.1,0.9,0.1c0.9-1.7,3.7-7.8,3.7-17.5h0.1
					c0-7.4-3.2-10.1-8.3-9.5s-13.1,3.4-18.9,1.4c0,0-2.7-1.2-4.6-4.4c-2.8-5.4-4.4-11.5-4.4-18.1C9.1,26.5,26.5,9,48,9
					c21.5,0,38.9,17.5,38.9,39.1c0,5.5-1.2,10.8-3.2,15.6l0,0c0,0.1-0.1,0.2-0.1,0.3c-0.3,0.6-0.6,1.3-0.9,1.9
					c-2,3.4-4.8,4.7-4.8,4.7c-5.8,2-13.7-0.8-18.9-1.4c-5.1-0.6-8.3,2.1-8.3,9.5c0,3.2,0.3,6.1,0.8,8.5c0,0,2.3,7.9,2.9,9
					c0,0,0,0,0,0c0,0,0,0,0,0c0.3,0,0.6-0.1,0.9-0.2c0,0,0,0,0,0c4.3-0.7,8.4-1.9,12.2-3.6c0.1,0,0.2-0.1,0.3-0.1
					C84.6,84.6,96.2,67.7,96.2,48.1z"/>
			</g>
		</g>
		<g>
			<path id="XMLID_00000145046012150502874710000005547267623611419834_" class="st3" d="M48.1,44c0,0,5.8,5,5.8,11.3
				s-5.8,11.3-5.8,11.3s-6-4.5-6-11.3S48.1,44,48.1,44z"/>
			<path id="XMLID_00000039098857149107525580000004405137213893857185_" class="st3" d="M70.5,29.9c0,0,1.5,6.8-2,11.5
				C65,46,58,46.5,58,46.5s-1.9-6.6,1.9-11.6S70.5,29.9,70.5,29.9z"/>
			<path id="XMLID_00000131345302790102910490000011745868790187473318_" class="st3" d="M27,29.9c0,0-1.5,6.8,2,11.5
				s10.5,5.2,10.5,5.2s1.9-6.6-1.9-11.6C33.9,29.9,27,29.9,27,29.9z"/>
			<path id="XMLID_00000015327654294258178780000003962352378501053835_" class="st3" d="M13.7,58.7c0,0,6.5,5.8,13.8,5
				c7.2-0.9,12.2-8.1,12.2-8.1s-6-6.1-13.8-5.2S13.7,58.7,13.7,58.7z"/>
			<path id="XMLID_00000117641530836721621490000010055820133574742703_" class="st3" d="M48,39.9c0,0,6.7-5.7,6.7-13
				s-6.6-13-6.6-13s-6.9,5.2-6.9,13S48,39.9,48,39.9z"/>
			<path id="XMLID_00000003821653766147751340000008615022362960091288_" class="st3" d="M82.2,58.7c0,0-6.5,5.8-13.8,5
				c-7.2-0.9-12.2-8.1-12.2-8.1s6-6.1,13.8-5.2S82.2,58.7,82.2,58.7z"/>
		</g>
	</g>
</g>
</svg>
