<?xml version="1.0" encoding="UTF-8"?>
<svg id="Layer_1" data-name="Layer 1" xmlns="http://www.w3.org/2000/svg" xmlns:xlink="http://www.w3.org/1999/xlink" viewBox="0 0 24 24">
  <defs>
    <style>
      .cls-1 {
        fill: none;
      }

      .cls-1, .cls-2, .cls-3, .cls-4 {
        stroke-width: 0px;
      }

      .cls-2 {
        fill: #fff;
      }

      .cls-5 {
        clip-path: url(#clippath);
      }

      .cls-3 {
        fill: #a6a8ab;
      }

      .cls-4 {
        fill: #ea2627;
      }
    </style>
    <clipPath id="clippath">
      <circle class="cls-1" cx="12" cy="12" r="12"/>
    </clipPath>
  </defs>
  <g class="cls-5">
    <g>
      <circle class="cls-2" cx="12" cy="12" r="12.05"/>
      <path class="cls-4" d="M24.05,12.05C24.05,5.36,18.65-.05,12-.05S-.05,5.36-.05,12.05c0,6.05,4.42,11.07,10.2,11.96,0,0,0,0,0,0,.08.01.15.02.23.03.22-.41.93-1.95.93-4.38h.01c0-1.86-.8-2.53-2.08-2.37s-3.27.85-4.72.36c0,0-.67-.3-1.16-1.09-.7-1.35-1.1-2.89-1.1-4.52C2.26,6.65,6.62,2.27,12,2.27s9.73,4.38,9.73,9.78c0,1.39-.29,2.7-.81,3.9h0s-.02.04-.03.06c-.07.16-.14.31-.22.47-.49.85-1.21,1.17-1.21,1.17-1.45.49-3.43-.2-4.72-.36-1.28-.16-2.08.52-2.08,2.37,0,.81.08,1.51.19,2.12,0,0,.58,1.98.72,2.26,0,0,0,0,.01,0,0,0,0,0,.01,0,.08-.01.16-.03.23-.04,0,0,0,0,0,0,1.07-.16,2.09-.47,3.05-.9.02-.01.05-.02.07-.03,4.18-1.9,7.09-6.12,7.09-11.03Z"/>
      <g>
        <path class="cls-3" d="M12.02,11.02s1.45,1.25,1.45,2.84-1.45,2.84-1.45,2.84c0,0-1.49-1.13-1.49-2.84s1.49-2.84,1.49-2.84Z"/>
        <path class="cls-3" d="M17.62,7.5s.37,1.71-.5,2.87-2.63,1.29-2.63,1.29c0,0-.47-1.65.47-2.9s2.66-1.27,2.66-1.27Z"/>
        <path class="cls-3" d="M6.75,7.5s-.37,1.71.5,2.87,2.63,1.29,2.63,1.29c0,0,.47-1.65-.47-2.9s-2.66-1.27-2.66-1.27Z"/>
        <path class="cls-3" d="M3.43,14.69s1.63,1.46,3.44,1.24c1.81-.22,3.04-2.03,3.04-2.03,0,0-1.5-1.53-3.45-1.3s-3.03,2.08-3.03,2.08Z"/>
        <path class="cls-3" d="M12,9.99s1.66-1.43,1.67-3.24c0-1.81-1.64-3.26-1.64-3.26,0,0-1.72,1.29-1.73,3.24s1.69,3.26,1.69,3.26Z"/>
        <path class="cls-3" d="M20.56,14.69s-1.63,1.46-3.44,1.24c-1.81-.22-3.04-2.03-3.04-2.03,0,0,1.5-1.53,3.45-1.3,1.94.24,3.03,2.08,3.03,2.08Z"/>
      </g>
    </g>
  </g>
</svg>