<svg width="24" height="24" viewBox="0 0 24 24" fill="none" xmlns="http://www.w3.org/2000/svg">
<path fill-rule="evenodd" clip-rule="evenodd" d="M12 24C18.6274 24 24 18.6274 24 12C24 5.37258 18.6274 0 12 0C5.37258 0 0 5.37258 0 12C0 18.6274 5.37258 24 12 24Z" fill="#012169"/>
<path fill-rule="evenodd" clip-rule="evenodd" d="M22.5997 6.36939L15 12.0375L22.5831 17.6616C22.0071 18.7361 21.2723 19.7127 20.41 20.5599L12 14.2875L3.60523 20.5748C2.74272 19.7303 2.0071 18.7567 1.42962 17.6853L8.96253 12.075L1.37244 6.42212C1.93751 5.34769 2.66075 4.36942 3.5112 3.51827L11.9625 9.78749L20.4419 3.47156C21.2987 4.31969 22.0284 5.29602 22.5997 6.36939Z" fill="white"/>
<path fill-rule="evenodd" clip-rule="evenodd" d="M20.8802 3.92883C21.1559 4.23189 21.4162 4.54912 21.66 4.87929L14.6625 10.1625L14.7375 8.51249L20.8802 3.92883ZM1.69659 5.84505C1.91737 5.47626 2.15739 5.1203 2.41526 4.77858L8.96252 9.59999H6.71252L1.69659 5.84505ZM21.5823 19.2246C21.8256 18.9025 22.0529 18.5678 22.2633 18.2216L15.9 13.5375H13.8375L21.5823 19.2246ZM3.17831 20.135L9.22502 15.6L9.00002 14.2875L2.40428 19.2068C2.6468 19.5292 2.9052 19.839 3.17831 20.135Z" fill="#C8102E"/>
<path fill-rule="evenodd" clip-rule="evenodd" d="M23.6219 15C23.8687 14.0411 24 13.0359 24 12C24 10.9641 23.8687 9.95886 23.6219 9H15.0375V0.387769C14.0674 0.134706 13.0494 0 12 0C10.9776 0 9.98506 0.127861 9.0375 0.368465V9H0.378052C0.131259 9.95886 0 10.9641 0 12C0 13.0359 0.131259 14.0411 0.378052 15H9.0375V23.6315C9.98506 23.8721 10.9776 24 12 24C13.0494 24 14.0674 23.8653 15.0375 23.6122V15H23.6219Z" fill="white"/>
<path fill-rule="evenodd" clip-rule="evenodd" d="M23.8602 13.8375C23.9522 13.2385 24 12.6248 24 12C24 11.4012 23.9561 10.8127 23.8715 10.2375H13.9307L13.9989 0.165729C13.3488 0.0567323 12.681 0 12 0C11.4573 0 10.9229 0.0360314 10.3993 0.105833L10.3307 10.2375H0.12852C0.0438522 10.8127 0 11.4012 0 12C0 12.6248 0.0477508 13.2385 0.139802 13.8375H10.3063L10.2384 23.8716C10.8133 23.9562 11.4015 24 12 24C12.6251 24 13.2391 23.9522 13.8384 23.8601L13.9063 13.8375H23.8602Z" fill="#C8102E"/>
</svg>
