<svg width="24" height="24" viewBox="0 0 24 24" fill="none" xmlns="http://www.w3.org/2000/svg">
<g clip-path="url(#clip0_3_74476)">
<path fillRule="evenodd" clip-rule="evenodd" d="M12 24C18.6274 24 24 18.6274 24 12C24 5.37258 18.6274 0 12 0C5.37258 0 0 5.37258 0 12C0 18.6274 5.37258 24 12 24Z" fill="#EE1C25"/>
<path fillRule="evenodd" clip-rule="evenodd" d="M9.90624 4.89312L9.28458 5.03089L9.24206 5.71078L8.88742 5.1189L8.23907 5.26258L8.67154 4.75863L8.31689 4.16675L8.93647 4.44991L9.35113 3.96671L9.31023 4.62073L9.90624 4.89312ZM2.88004 9.65998L3.4841 7.84777L1.80005 6.68998H3.87002L4.50002 4.79998L5.13001 6.68998H7.19998L5.51593 7.84777L6.11999 9.65998L4.50002 8.54623L2.88004 9.65998ZM10.9627 6.9114L11.5891 7.02552L11.1454 6.5433L11.4368 5.95632L10.8672 6.24088L10.4059 5.73959L10.5032 6.42269L9.90917 6.71946L10.5625 6.83849L10.6598 7.52159L10.9627 6.9114ZM11.3438 10.0172L10.8184 9.65746L10.293 10.0911L10.4827 9.42766L9.93472 9.05253L10.5982 9.02385L10.7879 8.36045L11.0046 9.00628L11.6407 8.97879L11.1353 9.39589L11.3438 10.0172ZM8.87877 11.4368L9.22448 11.9715L9.27215 11.3179L9.89944 11.1284L9.30205 10.9081L9.3516 10.2287L8.92037 10.7673L8.29733 10.5375L8.65789 11.0952L8.22667 11.6338L8.87877 11.4368Z" fill="#FFFF00"/>
</g>
<defs>
<clipPath id="clip0_3_74476">
<rect width="24" height="24" fill="white"/>
</clipPath>
</defs>
</svg>
