<?xml version="1.0" encoding="utf-8"?>
<!-- Generator: Adobe Illustrator 28.1.0, SVG Export Plug-In . SVG Version: 6.00 Build 0)  -->
<svg version="1.1" id="Layer_1" xmlns="http://www.w3.org/2000/svg" xmlns:xlink="http://www.w3.org/1999/xlink" x="0px" y="0px"
	 viewBox="0 0 211.6 96" style="enable-background:new 0 0 211.6 96;" xml:space="preserve">
<style type="text/css">
	.st0{clip-path:url(#SVGID_00000016035446975365717530000014472528105748784513_);}
	.st1{fill:#FFFFFF;}
	.st2{fill:#EA2627;}
	.st3{fill:#A6A8AB;}
	.st4{clip-path:url(#SVGID_00000001650263997776771740000014404540143572565155_);}
	.st5{fill-rule:evenodd;clip-rule:evenodd;fill:#EA2627;}
	.st6{clip-path:url(#SVGID_00000023249228076065865760000005095388632469430714_);}
</style>
<path id="XMLID_00000080912681663384182690000012161478064513168551_" class="st5" d="M122.8,62.8h-10.3c-1.4,0-1.7-0.3-1.7-1.7
	c0-1.9,0-3.7,0-5.6c0-1.1,0.2-1.4,1.3-1.4h18.3c0.9,0,1.5-0.3,2.1-1.1c1.1-1.5,1.2-3.2,1-4.9c-0.2-2.1-1.1-3-3.3-3.1h-9.1
	c-1.9-0.1-3.8-0.6-5.5-1.4c-2.4-1.2-3.8-3.1-4.6-5.5c-1.3-3.9-1.4-7.9,0-11.9c1.2-3.6,3.9-5.7,7.4-6.9c0.5-0.2,1.1-0.2,1.6-0.2
	l19.4,0c1.1,0,1.4,0.3,1.4,1.4v5.8c0,1.1-0.3,1.4-1.4,1.4h-16c-1.7,0-2.6,0.9-3.1,2.3c-0.5,1.4-0.3,2.9,0,4.4
	c0.2,0.9,1.1,1.5,2.1,1.5l9.5,0.2c1.8,0,3.5,0.4,5.1,1c3,1.3,4.7,3.7,5.5,6.7c1,3.6,1,7.2,0,10.8c-1,3.8-3.5,6.4-7.2,7.8
	c-0.7,0.3-1.5,0.4-2.3,0.4H122.8z"/>
<path id="XMLID_00000114771228322657360740000008824986615543960241_" class="st5" d="M147.2,41.1v-8.7c0-2.3,0.4-4.6,1.6-6.6
	c2.7-4.3,6.5-6.6,11.6-6.6h15.4c1.2,0,1.5,0.3,1.5,1.5c0,1.9,0,3.8,0,5.6c0,1.1-0.3,1.4-1.4,1.4h-14c-2.1,0-3.9,1.3-4.6,3.2
	c-0.3,1-0.6,2.1-0.6,3.1v15.6c0,2.7,1.9,4.5,4.6,4.5l14.6,0c1.2,0,1.5,0.2,1.5,1.5c0,1.9,0,3.8,0,5.6c0,1.2-0.3,1.5-1.5,1.5
	c-3.7,0-7.5,0-11.2,0c-1.5,0-3,0-4.5-0.1c-3-0.2-5.8-0.9-8.1-3c-3-2.7-4.9-6.1-4.9-10.3V41.1C147.2,41.1,147.2,41.1,147.2,41.1"/>
<path id="XMLID_00000068639838069091094670000000401864935327316114_" class="st5" d="M181.3,41.1v-8.7c0-2.3,0.4-4.6,1.6-6.6
	c2.7-4.3,6.5-6.6,11.6-6.6H210c1.2,0,1.5,0.3,1.5,1.5c0,1.9,0,3.8,0,5.6c0,1.1-0.3,1.4-1.4,1.4h-14c-2.1,0-3.9,1.3-4.6,3.2
	c-0.3,1-0.6,2.1-0.6,3.1v15.6c0,2.7,1.9,4.5,4.6,4.5l14.6,0c1.2,0,1.5,0.2,1.5,1.5c0,1.9,0,3.8,0,5.6c0,1.2-0.3,1.5-1.5,1.5
	c-3.7,0-7.5,0-11.2,0c-1.5,0-3,0-4.5-0.1c-3-0.2-5.8-0.9-8.1-3c-3-2.7-4.9-6.1-4.9-10.3V41.1C181.3,41.1,181.3,41.1,181.3,41.1"/>
<path class="st3" d="M156.6,75.7v-1.1c0-0.9-0.5-1.3-1.3-1.3s-1.3,0.5-1.3,1.3V82c0,0.9,0.5,1.3,1.3,1.3s1.3-0.5,1.3-1.3v-2.4h-1.3
	v-1.9h3.6V82c0,2-1.4,3.3-3.6,3.3s-3.6-1.3-3.6-3.3v-7.4c0-2,1.4-3.3,3.6-3.3s3.6,1.3,3.6,3.3v1.1H156.6z"/>
<path class="st3" d="M169.9,85.1l-1.6-5.6h-1.1v5.6H165V71.5h3.5c2.1,0,3.5,1.3,3.5,3.2v1.5c0,1.3-0.6,2.2-1.5,2.8l1.9,6.1H169.9z
	 M167.2,77.5h1.1c0.9,0,1.4-0.5,1.4-1.3v-1.6c0-0.8-0.5-1.3-1.4-1.3h-1.1V77.5z"/>
<path class="st3" d="M177.9,82v-7.4c0-2,1.4-3.3,3.6-3.3s3.6,1.3,3.6,3.3V82c0,2-1.4,3.3-3.6,3.3S177.9,83.9,177.9,82z M182.7,82
	v-7.4c0-0.9-0.5-1.3-1.3-1.3s-1.3,0.5-1.3,1.3V82c0,0.9,0.5,1.3,1.3,1.3S182.7,82.8,182.7,82z"/>
<path class="st3" d="M191.1,82.1V71.5h2.2v10.6c0,0.8,0.5,1.2,1.2,1.2s1.2-0.4,1.2-1.2V71.5h2.2v10.6c0,1.9-1.4,3.2-3.4,3.2
	S191.1,84,191.1,82.1z"/>
<path class="st3" d="M204.3,71.5h3.5c2.1,0,3.5,1.3,3.5,3.2v1.6c0,2-1.4,3.2-3.5,3.2h-1.3v5.5h-2.2V71.5z M207.7,77.6
	c0.9,0,1.4-0.5,1.4-1.3v-1.7c0-0.8-0.5-1.3-1.4-1.3h-1.1v4.2H207.7z"/>
<g>
	<defs>
		<circle id="SVGID_00000080179977540364474010000012096298210799629713_" cx="48" cy="48" r="48"/>
	</defs>
	<clipPath id="SVGID_00000036233954183606237090000000809482001029771405_">
		<use xlink:href="#SVGID_00000080179977540364474010000012096298210799629713_"  style="overflow:visible;"/>
	</clipPath>
	<g style="clip-path:url(#SVGID_00000036233954183606237090000000809482001029771405_);">
		<circle class="st1" cx="48" cy="48" r="48.2"/>
		<g id="XMLID_00000026160722661372877180000010635616876037280926_">
			<g id="XMLID_00000086658570874806312420000007208699367815280039_">
				<path id="XMLID_00000127022363508392225710000004017138431691374744_" class="st2" d="M96.2,48.2C96.2,21.5,74.6-0.2,48-0.2
					C21.4-0.2-0.2,21.5-0.2,48.2c0,24.2,17.7,44.3,40.8,47.9c0,0,0,0,0,0c0.3,0,0.6,0.1,0.9,0.1c0.9-1.7,3.7-7.8,3.7-17.5h0.1
					c0-7.4-3.2-10.1-8.3-9.5s-13.1,3.4-18.9,1.4c0,0-2.7-1.2-4.6-4.4c-2.8-5.4-4.4-11.5-4.4-18.1C9.1,26.6,26.5,9.1,48,9.1
					c21.5,0,38.9,17.5,38.9,39.1c0,5.5-1.2,10.8-3.2,15.6l0,0c0,0.1-0.1,0.2-0.1,0.3c-0.3,0.6-0.6,1.3-0.9,1.9
					c-2,3.4-4.8,4.7-4.8,4.7c-5.8,2-13.7-0.8-18.9-1.4c-5.1-0.6-8.3,2.1-8.3,9.5c0,3.2,0.3,6.1,0.8,8.5c0,0,2.3,7.9,2.9,9
					c0,0,0,0,0,0c0,0,0,0,0,0c0.3,0,0.6-0.1,0.9-0.2c0,0,0,0,0,0c4.3-0.7,8.4-1.9,12.2-3.6c0.1,0,0.2-0.1,0.3-0.1
					C84.6,84.7,96.2,67.8,96.2,48.2z"/>
			</g>
			<path id="XMLID_00000031913819241432188060000018254075435096207528_" class="st2" d="M96.2,55L96.2,55
				C96.2,54.9,96.2,55,96.2,55C96.2,55,96.2,55,96.2,55z"/>
		</g>
		<g>
			<path id="XMLID_00000038389431151709670280000009398890086942884753_" class="st3" d="M48.1,44.1c0,0,5.8,5,5.8,11.3
				s-5.8,11.3-5.8,11.3s-6-4.5-6-11.3S48.1,44.1,48.1,44.1z"/>
			<path id="XMLID_00000018205710960769853850000005178149735953854099_" class="st3" d="M70.5,30c0,0,1.5,6.8-2,11.5
				C65,46.1,58,46.6,58,46.6s-1.9-6.6,1.9-11.6S70.5,30,70.5,30z"/>
			<path id="XMLID_00000167386766805905598130000010094925259531215548_" class="st3" d="M27,30c0,0-1.5,6.8,2,11.5
				s10.5,5.2,10.5,5.2s1.9-6.6-1.9-11.6C33.9,30.1,27,30,27,30z"/>
			<path id="XMLID_00000071543735818310228170000005408298143037652882_" class="st3" d="M13.7,58.8c0,0,6.5,5.8,13.8,5
				c7.2-0.9,12.2-8.1,12.2-8.1s-6-6.1-13.8-5.2S13.7,58.8,13.7,58.8z"/>
			<path id="XMLID_00000178920172493374502630000013529932095890906770_" class="st3" d="M48,40c0,0,6.7-5.7,6.7-13s-6.6-13-6.6-13
				s-6.9,5.2-6.9,13S48,40,48,40z"/>
			<path id="XMLID_00000039093488964192393350000007739642923646866318_" class="st3" d="M82.2,58.8c0,0-6.5,5.8-13.8,5
				c-7.2-0.9-12.2-8.1-12.2-8.1s6-6.1,13.8-5.2S82.2,58.8,82.2,58.8z"/>
		</g>
	</g>
</g>
</svg>
