<?xml version="1.0" encoding="UTF-8"?>
<svg id="Layer_2" data-name="Layer 2" xmlns="http://www.w3.org/2000/svg" xmlns:xlink="http://www.w3.org/1999/xlink" viewBox="0 0 28 28">
  <defs>
    <style>
      .cls-1 {
        fill: #9ea3ac;
      }

      .cls-1, .cls-2, .cls-3, .cls-4 {
        stroke-width: 0px;
      }

      .cls-2 {
        fill: url(#linear-gradient-2);
      }

      .cls-3 {
        fill: url(#linear-gradient-3);
      }

      .cls-4 {
        fill: #c0c4cb;
      }

      .cls-5 {
        stroke: url(#linear-gradient);
      }

      .cls-5, .cls-6 {
        fill: none;
      }

      .cls-6 {
        stroke: rgba(255, 255, 255, .7);
        stroke-width: .4px;
      }
    </style>
    <linearGradient id="linear-gradient" x1="14" y1="30" x2="14" y2="6" gradientTransform="translate(0 32) scale(1 -1)" gradientUnits="userSpaceOnUse">
      <stop offset="0" stop-color="#d1d5db"/>
      <stop offset="1" stop-color="#d1d5db" stop-opacity="0"/>
    </linearGradient>
    <linearGradient id="linear-gradient-2" x1="14" y1="13.67" x2="14" y2="8" gradientTransform="translate(0 32) scale(1 -1)" gradientUnits="userSpaceOnUse">
      <stop offset="0" stop-color="#fff"/>
      <stop offset="1" stop-color="#fff" stop-opacity=".3"/>
    </linearGradient>
    <linearGradient id="linear-gradient-3" y1="23.53" y2="19" xlink:href="#linear-gradient-2"/>
  </defs>
  <g id="Layer_1-2" data-name="Layer 1">
    <circle class="cls-1" cx="14" cy="14" r="14"/>
    <g>
      <circle class="cls-4" cx="14" cy="14" r="12"/>
      <circle class="cls-5" cx="14" cy="14" r="11.5"/>
    </g>
    <g>
      <ellipse class="cls-2" cx="14" cy="19" rx="8" ry="5" shape-rendering="crispEdges"/>
      <path class="cls-6" d="M14,14.2c2.18,0,4.14.55,5.55,1.43,1.41.88,2.25,2.08,2.25,3.37s-.84,2.48-2.25,3.37c-1.41.88-3.37,1.43-5.55,1.43s-4.14-.55-5.55-1.43c-1.41-.88-2.25-2.08-2.25-3.37s.84-2.48,2.25-3.37c1.41-.88,3.37-1.43,5.55-1.43Z" shape-rendering="crispEdges"/>
    </g>
    <g>
      <circle class="cls-3" cx="14" cy="9" r="4" shape-rendering="crispEdges"/>
      <circle class="cls-6" cx="14" cy="9" r="3.8" shape-rendering="crispEdges"/>
    </g>
  </g>
</svg>