<svg width="10" height="25" viewBox="0 0 10 25" fill="none" xmlns="http://www.w3.org/2000/svg">
<g filter="url(#filter0_ii_1_304)">
<path d="M0.994794 3.94369C1.02521 2.88428 1.72917 1.96837 2.73969 1.64328L2.81103 1.62033C4.28802 1.14518 5.87896 1.17738 7.33008 1.71181C8.28858 2.06481 8.92521 2.97515 8.92723 3.9982C8.93077 5.79476 8.93378 8.85051 8.92466 12.3594C8.91738 15.1566 8.8306 17.9663 8.7566 19.8793C8.70225 21.2841 7.65684 22.4495 6.26808 22.6753L6.17758 22.69C5.23124 22.8438 4.26569 22.8241 3.32827 22.6318C2.03854 22.3673 1.11243 21.2398 1.0975 19.9222C1.0779 18.1921 1.04041 15.5623 0.970378 12.3695C0.891363 8.76728 0.943261 5.73885 0.994794 3.94369Z" fill="url(#paint0_linear_1_304)"/>
</g>
<path d="M1.8263 7.84746C1.65923 7.04986 2.14188 6.2267 2.93607 6.03298L3.00085 6.01717C4.2937 5.70182 5.64401 5.72683 6.91967 6.08976C7.67561 6.30482 8.10354 7.11371 7.92085 7.88065C7.63145 9.09563 7.28715 10.9994 7.29118 13.1689C7.29452 14.9713 7.54953 16.7865 7.77968 18.0604C7.94683 18.9856 7.31164 19.8982 6.3763 20.0122L6.22135 20.031C5.24597 20.1498 4.25968 20.1316 3.29122 19.9768C2.41385 19.8366 1.86338 18.9168 2.04945 18.046C2.29573 16.8934 2.53682 15.202 2.46793 13.1689C2.39283 10.9526 2.0811 9.06392 1.8263 7.84746Z" fill="#A7A5A5"/>
<g filter="url(#filter1_di_1_304)">
<path fill-rule="evenodd" clip-rule="evenodd" d="M1.48935 4.64843C1.5573 3.42828 2.30454 2.34418 3.40836 1.81334C4.3808 1.34568 5.51846 1.33618 6.48942 1.79478C7.63441 2.33557 8.37145 3.47632 8.38981 4.74519C8.39873 5.36228 8.40863 6.0831 8.41825 6.85891C8.41862 6.88914 8.3783 6.90215 8.35974 6.87828C8.341 6.85418 8.30334 6.87144 8.3065 6.90181C8.3241 7.07101 8.31631 7.24504 8.28036 7.41796C7.9995 8.7689 7.65593 10.9316 7.66231 13.4065C7.66744 15.3947 7.95142 17.3968 8.21144 18.8175C8.2587 19.0757 8.25135 19.3332 8.19769 19.577C8.19593 19.5849 8.20595 19.5901 8.21123 19.5838C8.21614 19.5781 8.22568 19.5819 8.2252 19.5895C8.19669 20.0435 8.17026 20.4331 8.14909 20.7336C8.1203 21.1423 7.85031 21.4925 7.46365 21.6301L7.29586 21.6898C5.65877 22.2724 3.87058 22.2496 2.2565 21.6253C1.9067 21.4901 1.66816 21.1666 1.64586 20.7916C1.62603 20.4582 1.59958 20.0004 1.56961 19.4481C1.56785 19.4157 1.61361 19.402 1.63161 19.429C1.6493 19.4556 1.6895 19.4385 1.68597 19.4068C1.66379 19.2077 1.67237 19.0031 1.71562 18.8009C1.99078 17.5143 2.25516 15.645 2.17633 13.404C2.0897 10.9412 1.73723 8.84026 1.4474 7.4799C1.42404 7.37025 1.4116 7.26014 1.40939 7.15091C1.40917 7.1401 1.39458 7.13679 1.3902 7.14668C1.38559 7.15709 1.36912 7.15353 1.36958 7.14214C1.40673 6.21388 1.44986 5.35756 1.48935 4.64843ZM1.97772 7.50648C1.82138 6.74815 2.27855 5.96912 3.03176 5.78017L3.09518 5.76426C4.36729 5.44513 5.69938 5.47024 6.95426 5.83701C7.67097 6.04648 8.07628 6.81355 7.90485 7.54253C7.62149 8.7474 7.27545 10.6707 7.27889 12.8681C7.28175 14.6961 7.53782 16.5372 7.76354 17.8073C7.92048 18.6903 7.31507 19.5587 6.42328 19.6705L6.27297 19.6894C5.30884 19.8102 4.3332 19.7918 3.37606 19.6347C2.53902 19.4974 2.01399 18.6223 2.19055 17.7909C2.43421 16.6435 2.6792 14.9333 2.61164 12.8688C2.53809 10.6216 2.2265 8.7132 1.97772 7.50648Z" fill="#7A8591"/>
</g>
<path d="M1.8438 7.93164C1.66971 7.08783 2.18019 6.21735 3.01985 6.01254L4.58759 5.63013C4.84044 5.56846 5.10453 5.57335 5.35403 5.64433L6.79177 6.05337C7.61724 6.28822 8.08451 7.17289 7.8901 8.01154C7.60763 9.23002 7.28729 11.0758 7.29118 13.1689C7.29457 15.0002 7.55777 16.8447 7.79073 18.1213C7.95359 19.0137 7.34081 19.8947 6.43828 20.0046L4.96098 20.1845C4.82172 20.2015 4.68091 20.1989 4.54263 20.1768L3.40429 19.9949C2.46847 19.8453 1.88069 18.8634 2.07316 17.9333C2.3109 16.7844 2.53461 15.1367 2.46793 13.1689C2.39454 11.003 2.09518 9.15014 1.8438 7.93164Z" fill="black"/>
<g filter="url(#filter2_d_1_304)">
<g filter="url(#filter3_d_1_304)">
<path d="M8.22164 3.45627C8.13053 3.26066 8.02488 3.11382 7.9146 3.00493C7.62064 2.7147 7.40468 3.11414 7.60608 3.47473C7.6238 3.50644 7.64135 3.53845 7.65873 3.5707C7.91663 4.04922 8.45114 3.94899 8.22164 3.45627Z" fill="white"/>
<path d="M7.91495 3.005C7.6211 2.71487 7.40491 3.1138 7.60593 3.47428L7.659 3.57079L7.71049 3.65369C7.96285 4.00948 8.37678 3.93149 8.25605 3.54405L8.22195 3.45652C8.15353 3.30963 8.07663 3.18997 7.99602 3.09351L7.91495 3.005Z" stroke="white" stroke-width="4.35467" stroke-linecap="round"/>
</g>
</g>
<g filter="url(#filter4_d_1_304)">
<g filter="url(#filter5_d_1_304)">
<path d="M7.31631 22.4773C7.61548 22.3174 7.83084 22.1396 7.98294 21.9593C8.36675 21.5043 7.75358 21.2253 7.2507 21.5477C7.19129 21.5858 7.13103 21.6235 7.0701 21.6609C6.39169 22.0769 6.61356 22.853 7.31631 22.4773Z" fill="#FF0000"/>
<path d="M7.98267 21.9594C8.36648 21.5044 7.75331 21.2252 7.25043 21.5476L7.07029 21.6613C6.43433 22.0513 6.58945 22.7576 7.19043 22.5348L7.31634 22.4771C7.54067 22.3571 7.71796 22.2273 7.8567 22.0938L7.98267 21.9594Z" stroke="#FF0000" stroke-width="4.35467" stroke-linecap="round"/>
</g>
</g>
<g filter="url(#filter6_d_1_304)">
<g filter="url(#filter7_d_1_304)">
<path d="M2.25128 22.4151C1.94506 22.2538 1.72576 22.0751 1.5717 21.8947C1.19672 21.4557 1.77533 21.19 2.26338 21.4994C2.33135 21.5424 2.40046 21.5851 2.47045 21.6273C3.13499 22.0277 2.938 22.7767 2.25128 22.4151Z" fill="#FF0000"/>
<path d="M1.57144 21.8945C1.19696 21.4557 1.77499 21.1906 2.2629 21.4997C2.33087 21.5428 2.40065 21.5854 2.47063 21.6276L2.58498 21.7065C3.07336 22.0901 2.91999 22.6708 2.37385 22.4707L2.2517 22.4154C2.02188 22.2944 1.84073 22.1631 1.69966 22.0291L1.57144 21.8945Z" stroke="#FF0000" stroke-width="4.35467" stroke-linecap="round"/>
</g>
</g>
<g filter="url(#filter8_d_1_304)">
<path d="M1.53693 3.48812C1.62724 3.28231 1.73384 3.12705 1.84616 3.01126C2.14532 2.70286 2.37945 3.114 2.17831 3.49367C2.16054 3.52722 2.14295 3.56107 2.12554 3.59516C1.86837 4.09891 1.30965 4.00604 1.53693 3.48812Z" fill="white"/>
<path d="M1.84582 3.01127C2.14497 2.70286 2.37969 3.11426 2.17855 3.49393L2.12563 3.59539L2.074 3.68221C1.81975 4.05863 1.38714 3.98656 1.50374 3.5804L1.53693 3.4883C1.60468 3.33391 1.68115 3.20743 1.76277 3.10525L1.84582 3.01127Z" stroke="white" stroke-width="4.35467" stroke-linecap="round"/>
</g>
<g filter="url(#filter9_dii_1_304)">
<path fill-rule="evenodd" clip-rule="evenodd" d="M2.57469 5.14644C1.9354 5.31502 1.4665 5.85981 1.42045 6.51841C1.33386 7.75713 1.22834 9.95775 1.30872 12.6397C1.38396 15.1498 1.47768 17.2077 1.54084 18.456C1.55117 18.6602 1.59867 18.8548 1.67704 19.0328C1.68199 18.9314 1.69508 18.8296 1.71678 18.7285C1.98815 17.4636 2.24493 15.6419 2.16709 13.4634C2.08144 11.0663 1.73594 9.01739 1.44803 7.67701C1.25248 6.76656 1.80548 5.82177 2.71473 5.60761L2.82746 5.58106C4.25872 5.24395 5.75035 5.28216 7.15738 5.69199C7.96774 5.92802 8.43625 6.7821 8.26262 7.61066C7.98337 8.94314 7.64676 11.0539 7.65308 13.4659C7.65814 15.3998 7.93543 17.3472 8.19287 18.7426C8.19808 18.7708 8.20264 18.799 8.20656 18.8272C8.24352 18.7065 8.26761 18.5801 8.27726 18.4497C8.37866 17.0789 8.50926 14.8908 8.50875 12.72C8.50814 10.1024 8.44055 7.84408 8.39339 6.58553C8.36943 5.94582 7.94247 5.39798 7.33112 5.21121C5.81625 4.74842 4.19943 4.71799 2.66231 5.12333L2.57469 5.14644Z" fill="black"/>
</g>
<path fill-rule="evenodd" clip-rule="evenodd" d="M1.34707 5.15525C1.41951 3.88575 2.20724 2.76161 3.36376 2.22499C4.33899 1.77248 5.46819 1.76343 6.44093 2.20671C7.63923 2.75279 8.41506 3.93666 8.43471 5.25666C8.44379 5.8665 8.45374 6.572 8.46339 7.32791C8.46369 7.35188 8.43179 7.3619 8.41756 7.3426C8.40309 7.32298 8.37256 7.33608 8.37502 7.36034C8.39316 7.53966 8.38427 7.72407 8.34539 7.9072C8.06015 9.25049 7.72505 11.3397 7.73146 13.7208C7.73659 15.6249 8.01137 17.542 8.27251 18.9382C8.28922 19.0276 8.29969 19.1169 8.30423 19.2057C8.29466 19.363 8.28516 19.5151 8.27583 19.6612C8.26845 19.7028 8.2598 19.7442 8.2499 19.7851C8.24866 19.7902 8.25516 19.7935 8.25851 19.7895C8.26158 19.7858 8.26766 19.7882 8.26734 19.793C8.23842 20.2397 8.21144 20.6255 8.18953 20.9271C8.15811 21.3597 7.86915 21.7292 7.45812 21.8703L7.28865 21.9285C5.61955 22.5016 3.80756 22.4793 2.16202 21.8653C1.79033 21.7266 1.53535 21.3854 1.51099 20.9887C1.4929 20.6942 1.46983 20.3087 1.44385 19.8512C1.4411 19.8028 1.5066 19.7792 1.53803 19.8162C1.57019 19.854 1.62873 19.82 1.61832 19.7715C1.55967 19.4979 1.55604 19.2094 1.61711 18.926C1.89037 17.6582 2.14212 15.8597 2.06351 13.7183C1.97678 11.3559 1.63218 9.32993 1.33846 7.98131C1.29642 7.7883 1.28663 7.59369 1.30565 7.40417C1.3076 7.3848 1.28255 7.37524 1.27217 7.39172C1.26182 7.40816 1.23516 7.40042 1.23598 7.381C1.27084 6.56015 1.31027 5.80011 1.34707 5.15525ZM1.87325 7.97155C1.70598 7.17554 2.18843 6.35241 2.98174 6.16039L3.04583 6.14488C4.32291 5.83577 5.65562 5.86004 6.9156 6.21534C7.67064 6.42826 8.09788 7.23643 7.91461 8.00199C7.62801 9.19914 7.28964 11.0644 7.29308 13.1882C7.29594 14.952 7.54562 16.7282 7.7727 17.9812C7.93984 18.9034 7.30611 19.8145 6.37333 19.9273L6.2196 19.9459C5.25749 20.0623 4.28487 20.0446 3.32964 19.8933C2.45492 19.7548 1.90637 18.837 2.09244 17.969C2.33558 16.8346 2.57184 15.1779 2.50438 13.189C2.43081 11.0201 2.12507 9.16992 1.87325 7.97155Z" fill="url(#paint1_linear_1_304)"/>
<path d="M2.23822 10.1528C3.9084 9.51453 5.75347 9.50414 7.43074 10.1236L7.48919 10.1451C7.48919 10.1451 7.34306 11.25 7.34306 13.5979C7.39912 15.9313 7.60156 16.9793 7.60156 16.9793L7.40136 17.0231C5.7086 17.3927 3.95395 17.3728 2.27001 16.9648C2.27001 16.9648 2.48169 15.1698 2.46967 13.5958C2.45935 12.2431 2.23822 10.1528 2.23822 10.1528Z" fill="url(#paint2_linear_1_304)"/>
<rect x="2.61206" y="10.8282" width="4.5" height="1" rx="0.5" fill="#34D186"/>
<defs>
<filter id="filter0_ii_1_304" x="0.92981" y="-4.52019" width="12.3555" height="27.3125" filterUnits="userSpaceOnUse" color-interpolation-filters="sRGB">
<feFlood flood-opacity="0" result="BackgroundImageFix"/>
<feBlend mode="normal" in="SourceGraphic" in2="BackgroundImageFix" result="shape"/>
<feColorMatrix in="SourceAlpha" type="matrix" values="0 0 0 0 0 0 0 0 0 0 0 0 0 0 0 0 0 0 127 0" result="hardAlpha"/>
<feOffset dx="4.35467" dy="-5.80623"/>
<feGaussianBlur stdDeviation="17.4187"/>
<feComposite in2="hardAlpha" operator="arithmetic" k2="-1" k3="1"/>
<feColorMatrix type="matrix" values="0 0 0 0 0 0 0 0 0 0 0 0 0 0 0 0 0 0 0.07 0"/>
<feBlend mode="normal" in2="shape" result="effect1_innerShadow_1_304"/>
<feColorMatrix in="SourceAlpha" type="matrix" values="0 0 0 0 0 0 0 0 0 0 0 0 0 0 0 0 0 0 127 0" result="hardAlpha"/>
<feOffset dy="-0.725779"/>
<feGaussianBlur stdDeviation="1.45156"/>
<feComposite in2="hardAlpha" operator="arithmetic" k2="-1" k3="1"/>
<feColorMatrix type="matrix" values="0 0 0 0 0 0 0 0 0 0 0 0 0 0 0 0 0 0 0.25 0"/>
<feBlend mode="normal" in2="effect1_innerShadow_1_304" result="effect2_innerShadow_1_304"/>
</filter>
<filter id="filter1_di_1_304" x="-1.53355" y="1.45663" width="10.7024" height="23.5572" filterUnits="userSpaceOnUse" color-interpolation-filters="sRGB">
<feFlood flood-opacity="0" result="BackgroundImageFix"/>
<feColorMatrix in="SourceAlpha" type="matrix" values="0 0 0 0 0 0 0 0 0 0 0 0 0 0 0 0 0 0 127 0" result="hardAlpha"/>
<feOffset dy="0.750549"/>
<feGaussianBlur stdDeviation="0.375275"/>
<feColorMatrix type="matrix" values="0 0 0 0 0.925374 0 0 0 0 0.925374 0 0 0 0 0.925374 0 0 0 0.37 0"/>
<feBlend mode="normal" in2="BackgroundImageFix" result="effect1_dropShadow_1_304"/>
<feBlend mode="normal" in="SourceGraphic" in2="effect1_dropShadow_1_304" result="shape"/>
<feColorMatrix in="SourceAlpha" type="matrix" values="0 0 0 0 0 0 0 0 0 0 0 0 0 0 0 0 0 0 127 0" result="hardAlpha"/>
<feOffset dx="-2.90311" dy="3.62889"/>
<feGaussianBlur stdDeviation="1.45156"/>
<feComposite in2="hardAlpha" operator="arithmetic" k2="-1" k3="1"/>
<feColorMatrix type="matrix" values="0 0 0 0 0 0 0 0 0 0 0 0 0 0 0 0 0 0 0.8 0"/>
<feBlend mode="normal" in2="shape" result="effect2_innerShadow_1_304"/>
</filter>
<filter id="filter2_d_1_304" x="6.07597" y="0.00194478" width="3.65318" height="3.88017" filterUnits="userSpaceOnUse" color-interpolation-filters="sRGB">
<feFlood flood-opacity="0" result="BackgroundImageFix"/>
<feColorMatrix in="SourceAlpha" type="matrix" values="0 0 0 0 0 0 0 0 0 0 0 0 0 0 0 0 0 0 127 0" result="hardAlpha"/>
<feOffset dy="-1.45156"/>
<feGaussianBlur stdDeviation="0.725779"/>
<feColorMatrix type="matrix" values="0 0 0 0 0 0 0 0 0 0 0 0 0 0 0 0 0 0 0.25 0"/>
<feBlend mode="normal" in2="BackgroundImageFix" result="effect1_dropShadow_1_304"/>
<feBlend mode="normal" in="SourceGraphic" in2="effect1_dropShadow_1_304" result="shape"/>
</filter>
<filter id="filter3_d_1_304" x="6.80175" y="2.90506" width="2.20162" height="2.42861" filterUnits="userSpaceOnUse" color-interpolation-filters="sRGB">
<feFlood flood-opacity="0" result="BackgroundImageFix"/>
<feColorMatrix in="SourceAlpha" type="matrix" values="0 0 0 0 0 0 0 0 0 0 0 0 0 0 0 0 0 0 127 0" result="hardAlpha"/>
<feOffset dy="0.725779"/>
<feGaussianBlur stdDeviation="0.362889"/>
<feColorMatrix type="matrix" values="0 0 0 0 1 0 0 0 0 1 0 0 0 0 1 0 0 0 0.25 0"/>
<feBlend mode="normal" in2="BackgroundImageFix" result="effect1_dropShadow_1_304"/>
<feBlend mode="normal" in="SourceGraphic" in2="effect1_dropShadow_1_304" result="shape"/>
</filter>
<filter id="filter4_d_1_304" x="5.20909" y="18.5053" width="4.34574" height="4.07185" filterUnits="userSpaceOnUse" color-interpolation-filters="sRGB">
<feFlood flood-opacity="0" result="BackgroundImageFix"/>
<feColorMatrix in="SourceAlpha" type="matrix" values="0 0 0 0 0 0 0 0 0 0 0 0 0 0 0 0 0 0 127 0" result="hardAlpha"/>
<feOffset dy="-1.45156"/>
<feGaussianBlur stdDeviation="0.725779"/>
<feColorMatrix type="matrix" values="0 0 0 0 0 0 0 0 0 0 0 0 0 0 0 0 0 0 0.25 0"/>
<feBlend mode="normal" in2="BackgroundImageFix" result="effect1_dropShadow_1_304"/>
<feBlend mode="normal" in="SourceGraphic" in2="effect1_dropShadow_1_304" result="shape"/>
</filter>
<filter id="filter5_d_1_304" x="5.93487" y="21.4084" width="2.89418" height="2.62029" filterUnits="userSpaceOnUse" color-interpolation-filters="sRGB">
<feFlood flood-opacity="0" result="BackgroundImageFix"/>
<feColorMatrix in="SourceAlpha" type="matrix" values="0 0 0 0 0 0 0 0 0 0 0 0 0 0 0 0 0 0 127 0" result="hardAlpha"/>
<feOffset dy="0.725779"/>
<feGaussianBlur stdDeviation="0.362889"/>
<feColorMatrix type="matrix" values="0 0 0 0 1 0 0 0 0 1 0 0 0 0 1 0 0 0 0.25 0"/>
<feBlend mode="normal" in2="BackgroundImageFix" result="effect1_dropShadow_1_304"/>
<feBlend mode="normal" in="SourceGraphic" in2="effect1_dropShadow_1_304" result="shape"/>
</filter>
<filter id="filter6_d_1_304" x="-1.94311e-05" y="18.4623" width="4.33103" height="4.04874" filterUnits="userSpaceOnUse" color-interpolation-filters="sRGB">
<feFlood flood-opacity="0" result="BackgroundImageFix"/>
<feColorMatrix in="SourceAlpha" type="matrix" values="0 0 0 0 0 0 0 0 0 0 0 0 0 0 0 0 0 0 127 0" result="hardAlpha"/>
<feOffset dy="-1.45156"/>
<feGaussianBlur stdDeviation="0.725779"/>
<feColorMatrix type="matrix" values="0 0 0 0 0 0 0 0 0 0 0 0 0 0 0 0 0 0 0.25 0"/>
<feBlend mode="normal" in2="BackgroundImageFix" result="effect1_dropShadow_1_304"/>
<feBlend mode="normal" in="SourceGraphic" in2="effect1_dropShadow_1_304" result="shape"/>
</filter>
<filter id="filter7_d_1_304" x="0.725759" y="21.3654" width="2.87947" height="2.59719" filterUnits="userSpaceOnUse" color-interpolation-filters="sRGB">
<feFlood flood-opacity="0" result="BackgroundImageFix"/>
<feColorMatrix in="SourceAlpha" type="matrix" values="0 0 0 0 0 0 0 0 0 0 0 0 0 0 0 0 0 0 127 0" result="hardAlpha"/>
<feOffset dy="0.725779"/>
<feGaussianBlur stdDeviation="0.362889"/>
<feColorMatrix type="matrix" values="0 0 0 0 1 0 0 0 0 1 0 0 0 0 1 0 0 0 0.25 0"/>
<feBlend mode="normal" in2="BackgroundImageFix" result="effect1_dropShadow_1_304"/>
<feBlend mode="normal" in="SourceGraphic" in2="effect1_dropShadow_1_304" result="shape"/>
</filter>
<filter id="filter8_d_1_304" x="0.0321462" y="-8.10623e-06" width="3.67283" height="3.92841" filterUnits="userSpaceOnUse" color-interpolation-filters="sRGB">
<feFlood flood-opacity="0" result="BackgroundImageFix"/>
<feColorMatrix in="SourceAlpha" type="matrix" values="0 0 0 0 0 0 0 0 0 0 0 0 0 0 0 0 0 0 127 0" result="hardAlpha"/>
<feOffset dy="-1.45156"/>
<feGaussianBlur stdDeviation="0.725779"/>
<feColorMatrix type="matrix" values="0 0 0 0 0 0 0 0 0 0 0 0 0 0 0 0 0 0 0.25 0"/>
<feBlend mode="normal" in2="BackgroundImageFix" result="effect1_dropShadow_1_304"/>
<feBlend mode="normal" in="SourceGraphic" in2="effect1_dropShadow_1_304" result="shape"/>
</filter>
<filter id="filter9_dii_1_304" x="-1.62302" y="4.84021" width="10.8823" height="17.0957" filterUnits="userSpaceOnUse" color-interpolation-filters="sRGB">
<feFlood flood-opacity="0" result="BackgroundImageFix"/>
<feColorMatrix in="SourceAlpha" type="matrix" values="0 0 0 0 0 0 0 0 0 0 0 0 0 0 0 0 0 0 127 0" result="hardAlpha"/>
<feOffset dy="0.750549"/>
<feGaussianBlur stdDeviation="0.375275"/>
<feColorMatrix type="matrix" values="0 0 0 0 0.925374 0 0 0 0 0.925374 0 0 0 0 0.925374 0 0 0 0.37 0"/>
<feBlend mode="normal" in2="BackgroundImageFix" result="effect1_dropShadow_1_304"/>
<feBlend mode="normal" in="SourceGraphic" in2="effect1_dropShadow_1_304" result="shape"/>
<feColorMatrix in="SourceAlpha" type="matrix" values="0 0 0 0 0 0 0 0 0 0 0 0 0 0 0 0 0 0 127 0" result="hardAlpha"/>
<feOffset dy="2.25165"/>
<feGaussianBlur stdDeviation="2.25165"/>
<feComposite in2="hardAlpha" operator="arithmetic" k2="-1" k3="1"/>
<feColorMatrix type="matrix" values="0 0 0 0 0.880555 0 0 0 0 0.921166 0 0 0 0 1 0 0 0 0.58 0"/>
<feBlend mode="normal" in2="shape" result="effect2_innerShadow_1_304"/>
<feColorMatrix in="SourceAlpha" type="matrix" values="0 0 0 0 0 0 0 0 0 0 0 0 0 0 0 0 0 0 127 0" result="hardAlpha"/>
<feOffset dx="-2.90311" dy="3.62889"/>
<feGaussianBlur stdDeviation="1.45156"/>
<feComposite in2="hardAlpha" operator="arithmetic" k2="-1" k3="1"/>
<feColorMatrix type="matrix" values="0 0 0 0 0 0 0 0 0 0 0 0 0 0 0 0 0 0 0.8 0"/>
<feBlend mode="normal" in2="effect2_innerShadow_1_304" result="effect3_innerShadow_1_304"/>
</filter>
<linearGradient id="paint0_linear_1_304" x1="4.17922" y1="21.8809" x2="-1.48644" y2="20.5463" gradientUnits="userSpaceOnUse">
<stop stop-color="#D8D8D8"/>
<stop offset="1" stop-color="white"/>
</linearGradient>
<linearGradient id="paint1_linear_1_304" x1="4.39039" y1="21.383" x2="-0.694877" y2="20.3364" gradientUnits="userSpaceOnUse">
<stop stop-color="#D8D8D8"/>
<stop offset="1" stop-color="white"/>
</linearGradient>
<linearGradient id="paint2_linear_1_304" x1="6.80308" y1="18.9572" x2="1.06924" y2="16.9364" gradientUnits="userSpaceOnUse">
<stop stop-color="#D2D2D2"/>
<stop offset="0.350909" stop-color="#CACACA"/>
<stop offset="1" stop-color="#F6F6F6"/>
</linearGradient>
</defs>
</svg>
