<svg width="102" height="264" viewBox="0 0 102 264" fill="none" xmlns="http://www.w3.org/2000/svg">
<g filter="url(#filter0_ii_3_1819)">
<path d="M4.55515 37.0787C4.91711 24.47 13.2953 13.5693 25.3222 9.7002L26.1712 9.42705C43.7497 3.77195 62.6844 4.15522 79.9549 10.5157C91.3627 14.7171 98.9396 25.5515 98.9635 37.7273C99.0057 59.1093 99.0415 95.4775 98.9329 137.239C98.8426 171.928 97.725 206.78 96.8226 229.549C96.2249 244.63 85.0022 257.139 70.0926 259.562L65.5415 260.302C54.7392 262.058 43.7179 261.834 33.0176 259.639L31.2508 259.276C16.529 256.256 5.95788 243.38 5.78984 228.34C5.56002 207.772 5.11295 176.036 4.26456 137.359C3.32416 94.4869 3.94182 58.4439 4.55515 37.0787Z" fill="url(#paint0_linear_3_1819)"/>
</g>
<path d="M14.4512 83.5387C12.4628 74.0461 18.2071 64.2492 27.6592 61.9436L28.4303 61.7555C43.8172 58.0023 59.8879 58.2999 75.0703 62.6193C84.0672 65.179 89.1602 74.806 86.986 83.9338C83.5416 98.3939 79.4439 121.051 79.4918 146.872C79.5316 168.324 82.5666 189.928 85.3058 205.089C87.2952 216.1 79.7354 226.962 68.6034 228.318L66.7592 228.542C55.1506 229.956 43.4123 229.739 31.8861 227.897C21.444 226.228 14.8926 215.282 17.1071 204.917C20.0382 191.2 22.9076 171.07 22.0876 146.872C21.1938 120.494 17.4838 98.0165 14.4512 83.5387Z" fill="#A7A5A5"/>
<g filter="url(#filter1_di_3_1819)">
<path fill-rule="evenodd" clip-rule="evenodd" d="M10.4414 45.4654C11.2501 30.9436 20.1434 18.0412 33.2806 11.7234C44.8542 6.15752 58.3941 6.04447 69.95 11.5025C83.5773 17.9388 92.3492 31.5155 92.5676 46.617C92.6718 53.8168 92.787 62.203 92.8993 71.2292C92.9034 71.5581 92.4637 71.7 92.2609 71.441C92.0565 71.18 91.6505 71.3691 91.6875 71.6986C91.9114 73.6954 91.8261 75.7533 91.3968 77.7982C88.0309 93.8294 83.8326 119.858 83.9095 149.701C83.9706 173.363 87.3503 197.191 90.445 214.1C91.0076 217.174 90.9199 220.24 90.281 223.141C90.2601 223.236 90.3793 223.297 90.4422 223.223C90.5006 223.154 90.6141 223.199 90.6085 223.289C90.2692 228.692 89.9546 233.329 89.7028 236.904C89.3601 241.768 86.1468 245.936 81.545 247.574L79.548 248.285C60.0641 255.219 38.7817 254.946 19.5716 247.517C15.4086 245.907 12.5695 242.057 12.3041 237.595C12.0681 233.626 11.7533 228.178 11.3967 221.606C11.3757 221.22 11.9204 221.058 12.1346 221.379C12.3452 221.695 12.8237 221.492 12.7817 221.115C12.5177 218.745 12.6198 216.309 13.1345 213.903C16.4094 198.591 19.556 176.342 18.6177 149.671C17.551 119.346 13.0979 93.6317 9.58739 77.5176C9.40071 76.6607 9.27559 75.8011 9.2092 74.9444C9.20532 74.8944 9.1364 74.8841 9.11928 74.9313C9.10089 74.9819 9.02303 74.9669 9.02519 74.913C9.46527 63.9543 9.97466 53.8462 10.4414 45.4654ZM16.2538 79.4815C14.3931 70.4561 19.8342 61.1845 28.7985 58.9357L29.5533 58.7463C44.6935 54.9482 60.5473 55.247 75.4824 59.6121C84.0125 62.1052 88.8363 71.2345 86.7959 79.9105C83.4235 94.2504 79.3052 117.141 79.3461 143.293C79.3801 165.049 82.4277 186.961 85.1141 202.077C86.982 212.587 79.7767 222.922 69.1629 224.253L67.374 224.477C55.8994 225.915 44.2877 225.696 32.8962 223.827C22.9342 222.192 16.6855 211.777 18.7869 201.882C21.6868 188.226 24.6025 167.872 23.7984 143.302C22.9231 116.557 19.2146 93.8434 16.2538 79.4815Z" fill="url(#paint1_linear_3_1819)"/>
</g>
<g filter="url(#filter2_di_3_1819)">
<path d="M10.6768 67.7128C10.4474 66.8826 10.9518 66.0189 11.7914 65.8141L51.5206 56.1233C51.7734 56.0616 52.0375 56.0665 52.287 56.1374L90.1005 66.8954C90.926 67.1303 91.3889 68.0012 91.1264 68.8216C88.8452 75.9511 79.4193 107.788 79.4918 146.872C79.5558 181.35 87.3568 216.219 89.2316 224.105C89.4413 224.987 88.8308 225.854 87.9283 225.964L49.4704 230.648C49.3312 230.665 49.1904 230.662 49.0521 230.64L13.4955 224.958C12.5597 224.808 11.9854 223.854 12.2894 222.953C14.7014 215.81 23.4443 186.908 22.0876 146.872C20.7102 106.22 12.6437 74.8308 10.6768 67.7128Z" fill="url(#paint2_linear_3_1819)"/>
</g>
<g filter="url(#filter3_d_3_1819)">
<g filter="url(#filter4_d_3_1819)">
<path d="M90.5671 31.2791C87.3984 24.4762 82.7525 22.6298 79.5695 22.5266C78.5058 22.4921 78.1083 23.7016 78.7569 24.5463C83.8784 31.2164 88.4437 41.7016 91.1637 49.0642C91.6765 50.4521 93.5008 50.2988 93.5811 48.8225C93.8464 43.9487 93.3599 37.2753 90.5671 31.2791Z" fill="white"/>
<path d="M81.9045 25.1844C85.6065 30.5735 88.9088 37.5623 91.362 43.5725C91.1029 39.9185 90.317 35.8963 88.5931 32.1952C86.591 27.8968 84.0455 25.9719 81.9045 25.1844Z" stroke="white" stroke-width="4.35467" stroke-linecap="round"/>
</g>
</g>
<g filter="url(#filter5_d_3_1819)">
<path d="M11.0064 31.6559C14.176 24.433 19.0314 22.4412 22.3448 22.2999C23.4077 22.2546 23.8288 23.4577 23.1976 24.3142C17.9535 31.4296 13.39 42.6329 10.7311 50.3961C10.2518 51.7953 8.41787 51.6867 8.29697 50.2127C7.87967 45.1248 8.19932 38.0527 11.0064 31.6559Z" fill="white"/>
<path d="M20.1088 24.9404C16.2196 30.8124 12.8117 38.5226 10.3497 45.0323C10.4885 41.0684 11.2023 36.627 12.9999 32.5304C15.0706 27.812 17.8214 25.7538 20.1088 24.9404Z" stroke="white" stroke-width="4.35467" stroke-linecap="round"/>
</g>
<g filter="url(#filter6_di_3_1819)">
<path fill-rule="evenodd" clip-rule="evenodd" d="M22.3872 51.6482C15.363 53.5005 10.2096 59.4989 9.69105 66.7344C9.54545 68.7659 9.39413 71.0337 9.24419 73.5211C10.1039 65.8944 15.4884 59.1278 23.2825 57.292L27.3998 56.3223C43.7568 52.4696 60.8037 52.9063 76.8838 57.59L78.5951 58.0884C87.8562 60.7859 93.2072 70.5541 91.2015 80.0189C87.8503 95.8323 83.7227 121.274 83.799 150.408C83.8593 173.424 87.1595 196.601 90.2234 213.208C90.2854 213.544 90.3396 213.88 90.3863 214.215C90.8263 212.778 91.1131 211.274 91.228 209.721C92.4347 193.407 93.9891 167.365 93.9831 141.529C93.9756 110.004 93.1521 82.8581 92.5902 67.9889C92.3147 60.6984 87.4485 54.4484 80.481 52.3199L78.7977 51.8056C61.533 46.5313 43.1065 46.1845 25.5881 50.8041L22.3872 51.6482ZM12.6749 216.662C12.7339 215.455 12.8896 214.244 13.1478 213.04C16.3775 197.986 19.4336 176.305 18.5072 150.378C17.4496 120.78 13.0636 95.6433 9.56755 79.7547C9.26089 78.3611 9.11696 76.9601 9.12367 75.575C8.24795 90.9139 7.48645 113.716 8.29146 140.573C9.18689 170.448 10.3024 194.94 11.0541 209.797C11.177 212.227 11.7422 214.542 12.6749 216.662Z" fill="url(#paint3_linear_3_1819)"/>
</g>
<g filter="url(#filter7_ii_3_1819)">
<path fill-rule="evenodd" clip-rule="evenodd" d="M8.7466 51.4957C9.60874 36.3867 18.984 23.0078 32.7484 16.6211C44.3552 11.2356 57.7944 11.1278 69.3715 16.4036C83.6332 22.9027 92.8668 36.9926 93.1007 52.7028C93.2063 59.7979 93.3219 67.9812 93.4342 76.7493C93.4367 76.9437 93.178 77.0238 93.0649 76.8655C92.9506 76.7055 92.7028 76.8055 92.7198 77.0015C92.8853 78.9025 92.7724 80.8526 92.3517 82.7887C88.8943 98.6988 84.6528 124.223 84.7315 153.439C84.7925 176.101 88.0627 198.917 91.1707 215.535C91.3693 216.597 91.4939 217.658 91.548 218.713C91.4339 220.589 91.3206 222.402 91.2093 224.144C91.1076 224.718 90.9855 225.287 90.8436 225.849C90.8252 225.922 90.9178 225.97 90.966 225.913C91.01 225.86 91.0967 225.894 91.0922 225.963C90.7542 231.171 90.4393 235.673 90.1826 239.205C89.8086 244.354 86.3696 248.751 81.4777 250.431L79.4607 251.124C59.5958 257.945 38.0303 257.679 18.4458 250.371C14.0221 248.72 10.9875 244.66 10.6975 239.939C10.4822 236.434 10.2077 231.845 9.89837 226.4C9.86562 225.823 10.6454 225.542 11.0194 225.982C11.4022 226.433 12.0991 226.028 11.9752 225.45C11.2775 222.195 11.2344 218.762 11.9611 215.389C15.2133 200.301 18.2096 178.895 17.274 153.41C16.1843 123.729 11.6744 98.5093 8.06724 82.5258C7.69873 80.8929 7.55394 79.2487 7.61342 77.6306C7.61518 77.5828 7.55168 77.5645 7.52848 77.6064C7.50502 77.6487 7.43963 77.6304 7.4417 77.582C7.85235 67.9671 8.31471 59.0647 8.7466 51.4957ZM15.0096 85.012C13.0188 75.5383 18.7607 65.7417 28.2023 63.4564L28.9652 63.2717C44.1644 59.5929 60.0257 59.8817 75.0214 64.1104C84.0076 66.6444 89.0925 76.2629 86.9112 85.3742C83.5003 99.6222 79.4731 121.821 79.5141 147.098C79.5481 168.09 82.5196 189.229 85.2223 204.142C87.2115 215.118 79.6692 225.962 68.5676 227.304L66.738 227.525C55.2873 228.91 43.7117 228.7 32.3429 226.9C21.9324 225.251 15.4038 214.328 17.6183 203.997C20.5121 190.497 23.324 170.778 22.521 147.107C21.6454 121.294 18.0066 99.2745 15.0096 85.012Z" fill="url(#paint4_linear_3_1819)"/>
</g>
<g filter="url(#filter8_ii_3_1819)">
<path d="M19.3533 110.976C39.231 103.38 61.1903 103.256 81.1524 110.628L81.848 110.885C81.848 110.885 80.1089 124.034 80.1089 151.978C80.7761 179.749 83.1854 192.222 83.1854 192.222L80.8027 192.743C60.6562 197.142 39.7732 196.905 19.7316 192.05C19.7316 192.05 22.2509 170.687 22.1079 151.952C21.9851 135.853 19.3533 110.976 19.3533 110.976Z" fill="url(#paint5_linear_3_1819)"/>
</g>
<defs>
<filter id="filter0_ii_3_1819" x="3.78149" y="-0.3575" width="99.5781" height="261.828" filterUnits="userSpaceOnUse" color-interpolation-filters="sRGB">
<feFlood flood-opacity="0" result="BackgroundImageFix"/>
<feBlend mode="normal" in="SourceGraphic" in2="BackgroundImageFix" result="shape"/>
<feColorMatrix in="SourceAlpha" type="matrix" values="0 0 0 0 0 0 0 0 0 0 0 0 0 0 0 0 0 0 127 0" result="hardAlpha"/>
<feOffset dx="4.35467" dy="-5.80623"/>
<feGaussianBlur stdDeviation="17.4187"/>
<feComposite in2="hardAlpha" operator="arithmetic" k2="-1" k3="1"/>
<feColorMatrix type="matrix" values="0 0 0 0 0 0 0 0 0 0 0 0 0 0 0 0 0 0 0.07 0"/>
<feBlend mode="normal" in2="shape" result="effect1_innerShadow_3_1819"/>
<feColorMatrix in="SourceAlpha" type="matrix" values="0 0 0 0 0 0 0 0 0 0 0 0 0 0 0 0 0 0 127 0" result="hardAlpha"/>
<feOffset dy="-0.725779"/>
<feGaussianBlur stdDeviation="1.45156"/>
<feComposite in2="hardAlpha" operator="arithmetic" k2="-1" k3="1"/>
<feColorMatrix type="matrix" values="0 0 0 0 0 0 0 0 0 0 0 0 0 0 0 0 0 0 0.25 0"/>
<feBlend mode="normal" in2="effect1_innerShadow_3_1819" result="effect2_innerShadow_3_1819"/>
</filter>
<filter id="filter1_di_3_1819" x="6.12203" y="7.47803" width="87.5279" height="248.719" filterUnits="userSpaceOnUse" color-interpolation-filters="sRGB">
<feFlood flood-opacity="0" result="BackgroundImageFix"/>
<feColorMatrix in="SourceAlpha" type="matrix" values="0 0 0 0 0 0 0 0 0 0 0 0 0 0 0 0 0 0 127 0" result="hardAlpha"/>
<feOffset dy="0.750549"/>
<feGaussianBlur stdDeviation="0.375275"/>
<feColorMatrix type="matrix" values="0 0 0 0 0.925374 0 0 0 0 0.925374 0 0 0 0 0.925374 0 0 0 0.37 0"/>
<feBlend mode="normal" in2="BackgroundImageFix" result="effect1_dropShadow_3_1819"/>
<feBlend mode="normal" in="SourceGraphic" in2="effect1_dropShadow_3_1819" result="shape"/>
<feColorMatrix in="SourceAlpha" type="matrix" values="0 0 0 0 0 0 0 0 0 0 0 0 0 0 0 0 0 0 127 0" result="hardAlpha"/>
<feOffset dx="-2.90311" dy="3.62889"/>
<feGaussianBlur stdDeviation="1.45156"/>
<feComposite in2="hardAlpha" operator="arithmetic" k2="-1" k3="1"/>
<feColorMatrix type="matrix" values="0 0 0 0 0 0 0 0 0 0 0 0 0 0 0 0 0 0 0.8 0"/>
<feBlend mode="normal" in2="shape" result="effect2_innerShadow_3_1819"/>
</filter>
<filter id="filter2_di_3_1819" x="7.71822" y="56.0803" width="84.2323" height="177.482" filterUnits="userSpaceOnUse" color-interpolation-filters="sRGB">
<feFlood flood-opacity="0" result="BackgroundImageFix"/>
<feColorMatrix in="SourceAlpha" type="matrix" values="0 0 0 0 0 0 0 0 0 0 0 0 0 0 0 0 0 0 127 0" result="hardAlpha"/>
<feOffset dy="0.750549"/>
<feGaussianBlur stdDeviation="0.375275"/>
<feColorMatrix type="matrix" values="0 0 0 0 0.925374 0 0 0 0 0.925374 0 0 0 0 0.925374 0 0 0 0.37 0"/>
<feBlend mode="normal" in2="BackgroundImageFix" result="effect1_dropShadow_3_1819"/>
<feBlend mode="normal" in="SourceGraphic" in2="effect1_dropShadow_3_1819" result="shape"/>
<feColorMatrix in="SourceAlpha" type="matrix" values="0 0 0 0 0 0 0 0 0 0 0 0 0 0 0 0 0 0 127 0" result="hardAlpha"/>
<feOffset dx="-2.90312" dy="3.62889"/>
<feGaussianBlur stdDeviation="1.45156"/>
<feComposite in2="hardAlpha" operator="arithmetic" k2="-1" k3="1"/>
<feColorMatrix type="matrix" values="0 0 0 0 0 0 0 0 0 0 0 0 0 0 0 0 0 0 0.8 0"/>
<feBlend mode="normal" in2="shape" result="effect2_innerShadow_3_1819"/>
</filter>
<filter id="filter3_d_3_1819" x="76.9913" y="19.6228" width="18.1048" height="30.3997" filterUnits="userSpaceOnUse" color-interpolation-filters="sRGB">
<feFlood flood-opacity="0" result="BackgroundImageFix"/>
<feColorMatrix in="SourceAlpha" type="matrix" values="0 0 0 0 0 0 0 0 0 0 0 0 0 0 0 0 0 0 127 0" result="hardAlpha"/>
<feOffset dy="-1.45156"/>
<feGaussianBlur stdDeviation="0.725779"/>
<feColorMatrix type="matrix" values="0 0 0 0 0 0 0 0 0 0 0 0 0 0 0 0 0 0 0.25 0"/>
<feBlend mode="normal" in2="BackgroundImageFix" result="effect1_dropShadow_3_1819"/>
<feBlend mode="normal" in="SourceGraphic" in2="effect1_dropShadow_3_1819" result="shape"/>
</filter>
<filter id="filter4_d_3_1819" x="77.7171" y="22.5259" width="16.6532" height="28.9481" filterUnits="userSpaceOnUse" color-interpolation-filters="sRGB">
<feFlood flood-opacity="0" result="BackgroundImageFix"/>
<feColorMatrix in="SourceAlpha" type="matrix" values="0 0 0 0 0 0 0 0 0 0 0 0 0 0 0 0 0 0 127 0" result="hardAlpha"/>
<feOffset dy="0.725779"/>
<feGaussianBlur stdDeviation="0.362889"/>
<feColorMatrix type="matrix" values="0 0 0 0 1 0 0 0 0 1 0 0 0 0 1 0 0 0 0.25 0"/>
<feBlend mode="normal" in2="BackgroundImageFix" result="effect1_dropShadow_3_1819"/>
<feBlend mode="normal" in="SourceGraphic" in2="effect1_dropShadow_3_1819" result="shape"/>
</filter>
<filter id="filter5_d_3_1819" x="6.69566" y="19.3955" width="18.2496" height="31.9893" filterUnits="userSpaceOnUse" color-interpolation-filters="sRGB">
<feFlood flood-opacity="0" result="BackgroundImageFix"/>
<feColorMatrix in="SourceAlpha" type="matrix" values="0 0 0 0 0 0 0 0 0 0 0 0 0 0 0 0 0 0 127 0" result="hardAlpha"/>
<feOffset dy="-1.45156"/>
<feGaussianBlur stdDeviation="0.725779"/>
<feColorMatrix type="matrix" values="0 0 0 0 0 0 0 0 0 0 0 0 0 0 0 0 0 0 0.25 0"/>
<feBlend mode="normal" in2="BackgroundImageFix" result="effect1_dropShadow_3_1819"/>
<feBlend mode="normal" in="SourceGraphic" in2="effect1_dropShadow_3_1819" result="shape"/>
</filter>
<filter id="filter6_di_3_1819" x="5.04757" y="47.5774" width="89.6861" height="171.988" filterUnits="userSpaceOnUse" color-interpolation-filters="sRGB">
<feFlood flood-opacity="0" result="BackgroundImageFix"/>
<feColorMatrix in="SourceAlpha" type="matrix" values="0 0 0 0 0 0 0 0 0 0 0 0 0 0 0 0 0 0 127 0" result="hardAlpha"/>
<feOffset dy="0.750549"/>
<feGaussianBlur stdDeviation="0.375275"/>
<feColorMatrix type="matrix" values="0 0 0 0 0.925374 0 0 0 0 0.925374 0 0 0 0 0.925374 0 0 0 0.37 0"/>
<feBlend mode="normal" in2="BackgroundImageFix" result="effect1_dropShadow_3_1819"/>
<feBlend mode="normal" in="SourceGraphic" in2="effect1_dropShadow_3_1819" result="shape"/>
<feColorMatrix in="SourceAlpha" type="matrix" values="0 0 0 0 0 0 0 0 0 0 0 0 0 0 0 0 0 0 127 0" result="hardAlpha"/>
<feOffset dx="-2.90311" dy="3.62889"/>
<feGaussianBlur stdDeviation="1.45156"/>
<feComposite in2="hardAlpha" operator="arithmetic" k2="-1" k3="1"/>
<feColorMatrix type="matrix" values="0 0 0 0 0 0 0 0 0 0 0 0 0 0 0 0 0 0 0.8 0"/>
<feBlend mode="normal" in2="shape" result="effect2_innerShadow_3_1819"/>
</filter>
<filter id="filter7_ii_3_1819" x="7.44165" y="6.7072" width="90.3473" height="249.345" filterUnits="userSpaceOnUse" color-interpolation-filters="sRGB">
<feFlood flood-opacity="0" result="BackgroundImageFix"/>
<feBlend mode="normal" in="SourceGraphic" in2="BackgroundImageFix" result="shape"/>
<feColorMatrix in="SourceAlpha" type="matrix" values="0 0 0 0 0 0 0 0 0 0 0 0 0 0 0 0 0 0 127 0" result="hardAlpha"/>
<feOffset dx="4.35467" dy="-5.80623"/>
<feGaussianBlur stdDeviation="17.4187"/>
<feComposite in2="hardAlpha" operator="arithmetic" k2="-1" k3="1"/>
<feColorMatrix type="matrix" values="0 0 0 0 0 0 0 0 0 0 0 0 0 0 0 0 0 0 0.07 0"/>
<feBlend mode="normal" in2="shape" result="effect1_innerShadow_3_1819"/>
<feColorMatrix in="SourceAlpha" type="matrix" values="0 0 0 0 0 0 0 0 0 0 0 0 0 0 0 0 0 0 127 0" result="hardAlpha"/>
<feOffset dy="-0.725779"/>
<feGaussianBlur stdDeviation="1.45156"/>
<feComposite in2="hardAlpha" operator="arithmetic" k2="-1" k3="1"/>
<feColorMatrix type="matrix" values="0 0 0 0 0 0 0 0 0 0 0 0 0 0 0 0 0 0 0.09 0"/>
<feBlend mode="normal" in2="effect1_innerShadow_3_1819" result="effect2_innerShadow_3_1819"/>
</filter>
<filter id="filter8_ii_3_1819" x="19.3533" y="99.381" width="68.1869" height="96.4947" filterUnits="userSpaceOnUse" color-interpolation-filters="sRGB">
<feFlood flood-opacity="0" result="BackgroundImageFix"/>
<feBlend mode="normal" in="SourceGraphic" in2="BackgroundImageFix" result="shape"/>
<feColorMatrix in="SourceAlpha" type="matrix" values="0 0 0 0 0 0 0 0 0 0 0 0 0 0 0 0 0 0 127 0" result="hardAlpha"/>
<feOffset dx="4.35467" dy="-5.80623"/>
<feGaussianBlur stdDeviation="17.4187"/>
<feComposite in2="hardAlpha" operator="arithmetic" k2="-1" k3="1"/>
<feColorMatrix type="matrix" values="0 0 0 0 0 0 0 0 0 0 0 0 0 0 0 0 0 0 0.07 0"/>
<feBlend mode="normal" in2="shape" result="effect1_innerShadow_3_1819"/>
<feColorMatrix in="SourceAlpha" type="matrix" values="0 0 0 0 0 0 0 0 0 0 0 0 0 0 0 0 0 0 127 0" result="hardAlpha"/>
<feOffset dy="-0.725779"/>
<feGaussianBlur stdDeviation="1.45156"/>
<feComposite in2="hardAlpha" operator="arithmetic" k2="-1" k3="1"/>
<feColorMatrix type="matrix" values="0 0 0 0 0 0 0 0 0 0 0 0 0 0 0 0 0 0 0.25 0"/>
<feBlend mode="normal" in2="effect1_innerShadow_3_1819" result="effect2_innerShadow_3_1819"/>
</filter>
<linearGradient id="paint0_linear_3_1819" x1="42.4548" y1="250.559" x2="-24.9754" y2="234.675" gradientUnits="userSpaceOnUse">
<stop stop-color="#D8D8D8"/>
<stop offset="1" stop-color="white"/>
</linearGradient>
<linearGradient id="paint1_linear_3_1819" x1="89.7189" y1="722.912" x2="-126.457" y2="653.301" gradientUnits="userSpaceOnUse">
<stop stop-color="#E8EAE9"/>
<stop offset="0.498386" stop-color="#707072"/>
<stop offset="1" stop-color="#2F3032"/>
</linearGradient>
<linearGradient id="paint2_linear_3_1819" x1="79.438" y1="564.813" x2="-114.362" y2="473.643" gradientUnits="userSpaceOnUse">
<stop stop-color="#E8EAE9"/>
<stop offset="0.498386" stop-color="#707072"/>
<stop offset="1" stop-color="#2F3032"/>
</linearGradient>
<linearGradient id="paint3_linear_3_1819" x1="90.7041" y1="539.688" x2="-108.145" y2="444.222" gradientUnits="userSpaceOnUse">
<stop stop-color="#E8EAE9"/>
<stop offset="0.498386" stop-color="#707072"/>
<stop offset="1" stop-color="#2F3032"/>
</linearGradient>
<linearGradient id="paint4_linear_3_1819" x1="44.9733" y1="244.632" x2="-15.5331" y2="232.182" gradientUnits="userSpaceOnUse">
<stop stop-color="#D8D8D8"/>
<stop offset="1" stop-color="white"/>
</linearGradient>
<linearGradient id="paint5_linear_3_1819" x1="73.6823" y1="215.762" x2="5.44055" y2="191.712" gradientUnits="userSpaceOnUse">
<stop stop-color="#D2D2D2"/>
<stop offset="0.350909" stop-color="#CACACA"/>
<stop offset="1" stop-color="#F6F6F6"/>
</linearGradient>
</defs>
</svg>
