<svg width="160" height="142" viewBox="0 0 160 142" fill="none" xmlns="http://www.w3.org/2000/svg">
<path d="M160 92.6L80 138.2L80 142L160 96.4L160 92.6Z" fill="#DADADA"/>
<rect width="92.0833" height="3.8" transform="matrix(-0.868777 -0.495204 -2.23146e-08 1 79.9999 138.2)" fill="#A7A6A6"/>
<path d="M80.0001 47L0.000268255 92.6L80.0001 138.2L160 92.6L80.0001 47Z" fill="#BABABA"/>
<g filter="url(#filter0_d_1710_599)">
<path d="M80.0001 65.9999L38.6493 89.5699L80.0001 113.14L121.351 89.5699L80.0001 65.9999Z" fill="#555555"/>
</g>
<g clip-path="url(#clip0_1710_599)">
<path d="M79.2498 13.8876L40.4402 36.2939L40.1238 36.4765L39.9266 36.7851L26.8846 57.1747L26.0389 58.497L27.3983 59.2822L39.6902 66.3788V88.2724L40.4402 88.706L79.2498 111.112L79.9998 111.546L80.7498 111.112L119.559 88.706L120.309 88.2724V66.3788L132.601 59.2822L133.961 58.497L133.115 57.1747L120.073 36.7851L119.877 36.4765L119.559 36.2939L80.7498 13.8876L79.9998 13.454L79.2498 13.8876Z" fill="#474C59" stroke="#474C59" stroke-width="3"/>
<path d="M41.1904 82.4068L80 60L80 15.1865L41.1904 37.5932L41.1904 82.4068Z" fill="url(#paint0_linear_1710_599)"/>
<rect width="44.8135" height="44.8135" transform="matrix(0.866025 0.5 2.20305e-08 -1 80 60)" fill="url(#paint1_linear_1710_599)"/>
<path d="M118.81 37.5932L79.9998 60L79.9998 109.814L118.81 87.4068L118.81 37.5932Z" fill="url(#paint2_linear_1710_599)"/>
<path d="M79.9999 60.0001L41.1903 37.5933L41.1903 87.4068L79.9999 109.814L79.9999 60.0001Z" fill="url(#paint3_linear_1710_599)"/>
<path d="M131.851 57.9834L93.0417 80.3901L80 60L118.81 37.5932L131.851 57.9834Z" fill="url(#paint4_linear_1710_599)"/>
<path d="M28.1486 57.9834L66.9583 80.3902L80 60L41.1903 37.5932L28.1486 57.9834Z" fill="url(#paint5_linear_1710_599)"/>
</g>
<defs>
<filter id="filter0_d_1710_599" x="34.6493" y="63.9999" width="90.7016" height="55.14" filterUnits="userSpaceOnUse" color-interpolation-filters="sRGB">
<feFlood flood-opacity="0" result="BackgroundImageFix"/>
<feColorMatrix in="SourceAlpha" type="matrix" values="0 0 0 0 0 0 0 0 0 0 0 0 0 0 0 0 0 0 127 0" result="hardAlpha"/>
<feOffset dy="2"/>
<feGaussianBlur stdDeviation="2"/>
<feComposite in2="hardAlpha" operator="out"/>
<feColorMatrix type="matrix" values="0 0 0 0 0 0 0 0 0 0 0 0 0 0 0 0 0 0 0.25 0"/>
<feBlend mode="normal" in2="BackgroundImageFix" result="effect1_dropShadow_1710_599"/>
<feBlend mode="normal" in="SourceGraphic" in2="effect1_dropShadow_1710_599" result="shape"/>
</filter>
<linearGradient id="paint0_linear_1710_599" x1="62.66" y1="24.8214" x2="62.66" y2="69.859" gradientUnits="userSpaceOnUse">
<stop stop-color="#CAD1E7"/>
<stop offset="1" stop-color="#B4BDD8"/>
</linearGradient>
<linearGradient id="paint1_linear_1710_599" x1="22.4068" y1="0.448134" x2="4.48135" y2="36.299" gradientUnits="userSpaceOnUse">
<stop stop-color="#CFD8EF"/>
<stop offset="1" stop-color="#D5DAE9"/>
</linearGradient>
<linearGradient id="paint2_linear_1710_599" x1="97.3399" y1="100.221" x2="100.551" y2="50.3649" gradientUnits="userSpaceOnUse">
<stop stop-color="#CAD1E7"/>
<stop offset="1" stop-color="#B4BDD8"/>
</linearGradient>
<linearGradient id="paint3_linear_1710_599" x1="60.5951" y1="49.2948" x2="63.7907" y2="98.9025" gradientUnits="userSpaceOnUse">
<stop stop-color="#CFD8EF"/>
<stop offset="1" stop-color="#D5DAE9"/>
</linearGradient>
<linearGradient id="paint4_linear_1710_599" x1="118.854" y1="37.5844" x2="130.89" y2="60.676" gradientUnits="userSpaceOnUse">
<stop stop-color="#EDF1FD"/>
<stop offset="1" stop-color="#E1E5F1"/>
</linearGradient>
<linearGradient id="paint5_linear_1710_599" x1="41.1464" y1="37.5844" x2="29.11" y2="60.676" gradientUnits="userSpaceOnUse">
<stop stop-color="#EDF1FD"/>
<stop offset="1" stop-color="#E1E5F1"/>
</linearGradient>
<clipPath id="clip0_1710_599">
<rect width="120" height="120" fill="white" transform="matrix(-1 0 0 1 140 0)"/>
</clipPath>
</defs>
</svg>
