<svg width="140" height="135" viewBox="0 0 140 135" fill="none" xmlns="http://www.w3.org/2000/svg">
<path d="M20.5025 64.8731C47.8392 48.8306 92.1608 48.8306 119.497 64.8731C131.064 71.6608 137.736 80.2329 139.515 89.0794H140L140 93.8002C140.052 104.353 133.218 114.916 119.497 122.968C92.1608 139.011 47.8392 139.011 20.5025 122.968C6.70182 114.869 -0.131715 104.23 0.00192208 93.6152V89.0794H0.484883C2.26363 80.2329 8.93618 71.6608 20.5025 64.8731Z" fill="url(#paint0_linear_1712_609)"/>
<path d="M119.497 60.0319C92.1608 43.9894 47.8392 43.9894 20.5025 60.0319C-6.83417 76.0744 -6.83418 102.084 20.5025 118.127C47.8392 134.169 92.1608 134.169 119.497 118.127C146.834 102.084 146.834 76.0744 119.497 60.0319Z" fill="#BABABA"/>
<g filter="url(#filter0_d_1712_609)">
<path d="M99.6985 72.0294C83.2965 62.6569 56.7035 62.6569 40.3015 72.0294C23.8995 81.402 23.8995 96.598 40.3015 105.971C56.7035 115.343 83.2965 115.343 99.6985 105.971C116.101 96.598 116.101 81.402 99.6985 72.0294Z" fill="#0A0A0A"/>
</g>
<path d="M28.5 79.0039L28.5195 86.4707C28.272 93.2932 32.668 99.8426 40.9717 104.637C49.0622 109.308 59.5718 111.601 70 111.601C80.4282 111.601 90.9378 109.308 99.0283 104.637C107.33 99.8437 111.726 93.2964 111.48 86.4756L111.5 83.2588V37.2451L111.48 31.54V31.5117L111.479 31.4844C111.219 25.0663 106.863 18.9871 99.0283 14.4639C90.9378 9.79281 80.4283 7.5 70 7.5C59.5718 7.50002 49.0622 9.79281 40.9717 14.4639C33.382 18.8458 29.0572 24.6879 28.5576 30.8838L28.5205 31.4844L28.5195 31.5117V31.54L28.5 37.2451V79.0039Z" fill="#474C59" stroke="#474C59" stroke-width="3"/>
<path d="M109.981 86.2668H110V69.845H97.1265C81.8289 61.6808 58.1711 61.6808 42.8735 69.845H30V86.2668H30.0194C29.7723 92.3559 33.673 98.4907 41.7216 103.138C57.3393 112.154 82.6607 112.154 98.2784 103.138C106.327 98.4907 110.228 92.3559 109.981 86.2668Z" fill="url(#paint1_linear_1712_609)"/>
<path d="M98.2785 54.0627C82.6608 45.0458 57.3395 45.0458 41.7218 54.0627C26.104 63.0796 26.104 77.6989 41.7218 86.7158C57.3395 95.7327 82.6608 95.7327 98.2785 86.7158C113.896 77.6989 113.896 63.0796 98.2785 54.0627Z" fill="url(#paint2_linear_1712_609)"/>
<path d="M109.981 67.1667H110V50.7449H97.1265C81.8289 42.5807 58.1711 42.5807 42.8735 50.7449H30V67.1667H30.0194C29.7723 73.2558 33.673 79.3906 41.7216 84.0375C57.3393 93.0544 82.6607 93.0544 98.2784 84.0375C106.327 79.3906 110.228 73.2558 109.981 67.1667Z" fill="url(#paint3_linear_1712_609)"/>
<path d="M98.2785 34.9626C82.6608 25.9457 57.3395 25.9457 41.7218 34.9626C26.104 43.9795 26.104 58.5988 41.7218 67.6157C57.3395 76.6325 82.6608 76.6325 98.2785 67.6157C113.896 58.5988 113.896 43.9795 98.2785 34.9626Z" fill="url(#paint4_linear_1712_609)"/>
<path d="M109.981 48.0665H110V31.6447H97.1265C81.8289 23.4804 58.1711 23.4804 42.8735 31.6447H30V48.0665H30.0194C29.7723 54.1556 33.673 60.2904 41.7216 64.9372C57.3393 73.9541 82.6607 73.9541 98.2784 64.9372C106.327 60.2904 110.228 54.1556 109.981 48.0665Z" fill="url(#paint5_linear_1712_609)"/>
<path d="M98.2785 15.8624C82.6608 6.84551 57.3395 6.84551 41.7218 15.8624C26.104 24.8793 26.104 39.4986 41.7218 48.5155C57.3395 57.5324 82.6608 57.5324 98.2785 48.5155C113.896 39.4986 113.896 24.8793 98.2785 15.8624Z" fill="url(#paint6_linear_1712_609)"/>
<path fill-rule="evenodd" clip-rule="evenodd" d="M70 44.1526C64.2567 44.1526 58.5068 42.8867 54.1229 40.3556C49.739 37.8246 47.5464 34.5048 47.5464 31.189C47.5464 27.8731 49.7389 24.5534 54.1229 22.0223C58.5068 19.4913 64.2568 18.2254 70 18.2254C75.7432 18.2254 81.4932 19.4912 85.8771 22.0223C90.2611 24.5534 92.4536 27.8731 92.4536 31.189C92.4536 34.5048 90.261 37.8246 85.8771 40.3556C81.4932 42.8867 75.7432 44.1526 70 44.1526ZM59.8964 37.0223C59.0992 36.5621 59.0992 35.8159 59.8964 35.3556L71.4434 28.689C72.2405 28.2287 73.533 28.2287 74.3301 28.689C75.1273 29.1492 75.1273 29.8954 74.3301 30.3556L62.7831 37.0223C61.986 37.4825 60.6935 37.4825 59.8964 37.0223ZM79.3819 25.7723C78.3855 25.197 76.7699 25.197 75.7735 25.7723C74.7771 26.3476 74.7771 27.2804 75.7735 27.8556C76.7699 28.4309 78.3855 28.4309 79.3819 27.8556C80.3784 27.2804 80.3784 26.3476 79.3819 25.7723Z" fill="#6E7CA5"/>
<defs>
<filter id="filter0_d_1712_609" x="24" y="62" width="92" height="56" filterUnits="userSpaceOnUse" color-interpolation-filters="sRGB">
<feFlood flood-opacity="0" result="BackgroundImageFix"/>
<feColorMatrix in="SourceAlpha" type="matrix" values="0 0 0 0 0 0 0 0 0 0 0 0 0 0 0 0 0 0 127 0" result="hardAlpha"/>
<feOffset dy="1"/>
<feGaussianBlur stdDeviation="2"/>
<feComposite in2="hardAlpha" operator="out"/>
<feColorMatrix type="matrix" values="0 0 0 0 0 0 0 0 0 0 0 0 0 0 0 0 0 0 0.25 0"/>
<feBlend mode="normal" in2="BackgroundImageFix" result="effect1_dropShadow_1712_609"/>
<feBlend mode="normal" in="SourceGraphic" in2="effect1_dropShadow_1712_609" result="shape"/>
</filter>
<linearGradient id="paint0_linear_1712_609" x1="0.299669" y1="85.916" x2="140.329" y2="85.916" gradientUnits="userSpaceOnUse">
<stop stop-color="#ECECEC"/>
<stop offset="1" stop-color="#DADADA"/>
</linearGradient>
<linearGradient id="paint1_linear_1712_609" x1="30" y1="86.9034" x2="109.728" y2="86.9034" gradientUnits="userSpaceOnUse">
<stop stop-color="#E8ECF8"/>
<stop offset="0.223958" stop-color="#D9DFEE"/>
<stop offset="0.859375" stop-color="#B4BDD8"/>
<stop offset="1" stop-color="#BEC5DC"/>
</linearGradient>
<linearGradient id="paint2_linear_1712_609" x1="110.039" y1="47.3274" x2="70.1185" y2="116.472" gradientUnits="userSpaceOnUse">
<stop stop-color="#9DA4B9"/>
<stop offset="1" stop-color="#808BAB"/>
</linearGradient>
<linearGradient id="paint3_linear_1712_609" x1="30" y1="67.8033" x2="109.728" y2="67.8033" gradientUnits="userSpaceOnUse">
<stop stop-color="#E8ECF8"/>
<stop offset="0.223958" stop-color="#D9DFEE"/>
<stop offset="0.859375" stop-color="#B4BDD8"/>
<stop offset="1" stop-color="#BEC5DC"/>
</linearGradient>
<linearGradient id="paint4_linear_1712_609" x1="110.039" y1="28.2273" x2="70.1185" y2="97.3718" gradientUnits="userSpaceOnUse">
<stop stop-color="#9DA4B9"/>
<stop offset="1" stop-color="#808BAB"/>
</linearGradient>
<linearGradient id="paint5_linear_1712_609" x1="30" y1="48.7031" x2="109.728" y2="48.7031" gradientUnits="userSpaceOnUse">
<stop stop-color="#E8ECF8"/>
<stop offset="0.223958" stop-color="#D9DFEE"/>
<stop offset="0.859375" stop-color="#B4BDD8"/>
<stop offset="1" stop-color="#BEC5DC"/>
</linearGradient>
<linearGradient id="paint6_linear_1712_609" x1="110.039" y1="9.12707" x2="106.941" y2="59.9884" gradientUnits="userSpaceOnUse">
<stop stop-color="#EDF1FD"/>
<stop offset="1" stop-color="#E1E5F1"/>
</linearGradient>
</defs>
</svg>
