<svg width="189" height="181" viewBox="0 0 189 181" fill="none" xmlns="http://www.w3.org/2000/svg">
<path d="M189 138.111L126 174.742L126 180.847L189 144.216L189 138.111Z" fill="#DADADA"/>
<rect width="145.751" height="6.10526" transform="matrix(-0.864485 -0.502658 -2.1875e-08 1 126 174.742)" fill="#A7A6A6"/>
<path d="M63 65L1.29059e-05 101.632L126 174.895L189 138.263L63 65Z" fill="#BABABA"/>
<g filter="url(#filter0_d_1717_878)">
<path d="M50.9749 18.884L139.597 70.0502L139.597 144.053L136.025 146.116L47.4026 94.9497L47.4026 20.9465L50.9749 18.884Z" fill="#474C59"/>
<path d="M141.098 144.919L140.348 145.353L136.775 147.415L136.025 147.848L135.275 147.415L46.6526 96.2482L45.9026 95.8156V20.0802L46.6526 19.6476L50.2248 17.5851L50.9748 17.1515L51.7248 17.5851L140.348 68.7511L141.098 69.1838V144.919Z" stroke="#474C59" stroke-width="3"/>
</g>
<path d="M136.025 72.1129L139.597 70.0504L139.597 144.054L136.025 146.116L136.025 72.1129Z" fill="url(#paint0_linear_1717_878)"/>
<path d="M50.9749 18.8842L139.597 70.0504L136.025 72.1129L47.4026 20.9467L50.9749 18.8842Z" fill="url(#paint1_linear_1717_878)"/>
<path d="M47.4025 20.9467L136.025 72.113L136.025 146.116L47.4025 94.9499L47.4025 20.9467Z" fill="url(#paint2_linear_1717_878)"/>
<path d="M51.9932 36.2377C51.9932 35.1331 52.7687 34.6854 53.7253 35.2377L128.853 78.6127C129.81 79.165 130.585 80.5081 130.585 81.6127L130.585 135.363C130.585 136.467 129.81 136.915 128.853 136.363L53.7253 92.9877C52.7687 92.4354 51.9932 91.0923 51.9932 89.9877L51.9932 36.2377Z" fill="white"/>
<path fill-rule="evenodd" clip-rule="evenodd" d="M60.3978 33.9278C60.3979 33.0169 61.0375 32.6482 61.8265 33.1036C62.6157 33.5593 63.2562 34.667 63.2562 35.5782C63.2562 36.4895 62.6157 36.8591 61.8265 36.4034C61.0374 35.9477 60.3978 34.839 60.3978 33.9278ZM56.221 31.4532C56.221 30.542 56.8615 30.1724 57.6507 30.628C58.4398 31.0838 59.0794 32.1924 59.0794 33.1036C59.0792 34.0145 58.4397 34.3833 57.6507 33.9278C56.8615 33.4722 56.221 32.3645 56.221 31.4532ZM51.9935 28.9786C51.9935 28.0674 52.633 27.6978 53.4222 28.1534C54.2113 28.6091 54.8508 29.7168 54.8509 30.628C54.8509 31.5393 54.2114 31.9089 53.4222 31.4532C52.6331 30.9977 51.9937 29.8898 51.9935 28.9786Z" fill="url(#paint3_linear_1717_878)"/>
<g clip-path="url(#clip0_1717_878)">
<path opacity="0.5" d="M71.9003 77.2566C71.9003 75.1884 71.9003 74.1544 72.5378 73.9194C72.7642 73.8359 73.0393 73.8234 73.3459 73.8825C74.2095 74.049 75.3445 75.0313 77.6144 76.9959C79.3474 78.4957 80.2139 79.2456 81.0895 79.7253C81.4111 79.9015 81.7308 80.049 82.0439 80.1658C82.8965 80.4839 83.6564 80.4847 85.1764 80.4864L87.4211 80.489C89.3681 80.4912 90.3416 80.4923 91.459 81.0081C92.5765 81.5239 93.6864 82.4845 95.9063 84.4058L97.7977 86.0427C99.4053 87.434 100.209 88.1297 100.669 88.9464C101.129 89.7632 101.129 90.4956 101.129 91.9602L101.129 103.368C101.129 105.437 101.129 106.471 100.491 106.706C100.265 106.789 99.9896 106.802 99.683 106.742C98.8194 106.576 97.6844 105.594 95.4145 103.629C93.6815 102.129 92.815 101.379 91.9394 100.9C91.6178 100.724 91.2981 100.576 90.985 100.459C90.1324 100.141 89.3724 100.14 87.8525 100.139L85.6078 100.136C83.6608 100.134 82.6873 100.133 81.5699 99.6169C80.4524 99.1011 79.3424 98.1405 77.1225 96.2192L75.2312 94.5823C73.6236 93.191 72.8198 92.4953 72.36 91.6786C71.9003 90.8618 71.9003 90.1294 71.9003 88.6648L71.9003 77.2566Z" fill="#6E7CA5"/>
<path fill-rule="evenodd" clip-rule="evenodd" d="M86.5144 65C81.1336 61.8934 76.7716 64.1602 76.7716 70.0631C76.7716 75.9197 79.8812 84.5491 84.7328 89.7941C85.8638 91.0168 87.1651 91.7681 88.2961 91.8513C93.1477 92.2085 96.2572 87.1697 96.2572 81.3131C96.2572 75.4102 91.8952 68.1066 86.5144 65ZM86.5144 80C88.308 81.0355 89.762 80.1961 89.762 78.125C89.762 76.0539 88.308 73.5355 86.5144 72.5C84.7208 71.4645 83.2668 72.3039 83.2668 74.375C83.2668 76.4461 84.7208 78.9645 86.5144 80Z" fill="#6E7CA5"/>
</g>
<defs>
<filter id="filter0_d_1717_878" x="42.4026" y="15.4198" width="102.195" height="138.16" filterUnits="userSpaceOnUse" color-interpolation-filters="sRGB">
<feFlood flood-opacity="0" result="BackgroundImageFix"/>
<feColorMatrix in="SourceAlpha" type="matrix" values="0 0 0 0 0 0 0 0 0 0 0 0 0 0 0 0 0 0 127 0" result="hardAlpha"/>
<feOffset dy="2"/>
<feGaussianBlur stdDeviation="1"/>
<feComposite in2="hardAlpha" operator="out"/>
<feColorMatrix type="matrix" values="0 0 0 0 0 0 0 0 0 0 0 0 0 0 0 0 0 0 0.25 0"/>
<feBlend mode="normal" in2="BackgroundImageFix" result="effect1_dropShadow_1717_878"/>
<feBlend mode="normal" in="SourceGraphic" in2="effect1_dropShadow_1717_878" result="shape"/>
</filter>
<linearGradient id="paint0_linear_1717_878" x1="137.811" y1="71.8217" x2="130.323" y2="72.5873" gradientUnits="userSpaceOnUse">
<stop stop-color="#CFD8EF"/>
<stop offset="1" stop-color="#D5DAE9"/>
</linearGradient>
<linearGradient id="paint1_linear_1717_878" x1="50.9203" y1="18.8551" x2="48.9625" y2="22.2752" gradientUnits="userSpaceOnUse">
<stop stop-color="#EDF1FD"/>
<stop offset="1" stop-color="#E1E5F1"/>
</linearGradient>
<linearGradient id="paint2_linear_1717_878" x1="96.4288" y1="123.877" x2="108.02" y2="51.3562" gradientUnits="userSpaceOnUse">
<stop stop-color="#CAD1E7"/>
<stop offset="1" stop-color="#B4BDD8"/>
</linearGradient>
<linearGradient id="paint3_linear_1717_878" x1="51.9868" y1="27.9634" x2="52.7548" y2="37.453" gradientUnits="userSpaceOnUse">
<stop stop-color="#EDF1FD"/>
<stop offset="1" stop-color="#E1E5F1"/>
</linearGradient>
<clipPath id="clip0_1717_878">
<rect width="45" height="45" fill="white" transform="matrix(0.866025 0.5 -2.20305e-08 1 67.0289 50)"/>
</clipPath>
</defs>
</svg>
