<svg width="140" height="132" viewBox="0 0 140 132" fill="none" xmlns="http://www.w3.org/2000/svg">
<path d="M20.5025 61.8731C47.8392 45.8306 92.1608 45.8306 119.497 61.8731C131.064 68.6608 137.736 77.2329 139.515 86.0794H140L140 90.8002C140.052 101.353 133.218 111.916 119.497 119.968C92.1608 136.011 47.8392 136.011 20.5025 119.968C6.70182 111.869 -0.131715 101.23 0.00192208 90.6152V86.0794H0.484883C2.26363 77.2329 8.93618 68.6608 20.5025 61.8731Z" fill="url(#paint0_linear_1717_877)"/>
<path d="M119.497 57.0319C92.1608 40.9894 47.8392 40.9894 20.5025 57.0319C-6.83417 73.0744 -6.83418 99.0844 20.5025 115.127C47.8392 131.169 92.1608 131.169 119.497 115.127C146.834 99.0844 146.834 73.0744 119.497 57.0319Z" fill="#BABABA"/>
<g filter="url(#filter0_f_1717_877)">
<path d="M101.82 65.6152C84.2462 55.4616 55.7538 55.4616 38.1802 65.6152C20.6066 75.7689 20.6066 92.2311 38.1802 102.385C55.7538 112.538 84.2462 112.538 101.82 102.385C119.393 92.2311 119.393 75.7689 101.82 65.6152Z" fill="#0A0A0A"/>
</g>
<path d="M24.3671 83.9066H24.3681C24.0928 91.3645 28.8951 98.5536 38.038 103.832C46.9412 108.973 58.5155 111.5 70.0087 111.5C81.5022 111.5 93.0772 108.973 101.98 103.832C111.123 98.5536 115.926 91.3645 115.65 83.9066H115.651V56.9134L115.649 56.8821C115.365 49.8682 110.602 43.197 101.98 38.2191C93.0773 33.079 81.5028 30.5521 70.0097 30.5521C58.5164 30.5521 46.9412 33.0789 38.038 38.2191C29.416 43.197 24.6539 49.8682 24.3691 56.8821L24.3681 56.9134V56.9437L24.3671 83.9066Z" fill="#474C59" stroke="#474C59" stroke-width="3"/>
<path d="M25.8369 56.9434H114.163V83.9069H114.142C114.414 90.6297 110.108 97.403 101.221 102.534C83.9783 112.489 56.0216 112.489 38.7785 102.534C29.8922 97.403 25.5855 90.6297 25.8583 83.9069H25.8369V56.9434Z" fill="url(#paint1_linear_1717_877)"/>
<path d="M101.231 39.5186C83.9875 29.5632 56.0308 29.5632 38.7877 39.5186C21.5445 49.4739 21.5445 65.6147 38.7877 75.57C56.0308 85.5254 83.9875 85.5254 101.231 75.57C118.474 65.6147 118.474 49.4739 101.231 39.5186Z" fill="url(#paint2_linear_1717_877)"/>
<path d="M72.1651 48.0268C75.7523 45.9557 81.5682 45.9557 85.1554 48.0268C88.7426 50.0978 88.7426 53.4557 85.1554 55.5268C81.5682 57.5978 75.7523 57.5978 72.1651 55.5268C68.5779 53.4557 68.5779 50.0978 72.1651 48.0268Z" fill="#6E7CA5"/>
<path d="M64.7421 54.5744L72.3712 58.9791C73.9355 59.8822 75.1972 60.6107 76.1355 61.2488C77.1015 61.9058 77.844 62.5441 78.2633 63.2891C78.9293 64.4726 78.9293 65.7475 78.2633 66.931C77.844 67.6761 77.1015 68.3144 76.1355 68.9714C75.1973 69.6095 73.9355 70.338 72.3712 71.2411L71.4434 71.7768C70.6462 72.237 69.3538 72.237 68.5566 71.7768L42.5759 56.7768C41.7787 56.3165 41.7787 55.5703 42.5759 55.1101L43.5037 54.5744C45.068 53.6713 46.3297 52.9428 47.4349 52.4011C48.5728 51.8434 49.6785 51.4147 50.969 51.1726C53.0188 50.7881 55.2269 50.7881 57.2768 51.1726C58.5673 51.4147 59.6729 51.8434 60.8109 52.4011C61.9161 52.9428 63.1778 53.6713 64.7421 54.5744Z" fill="#6E7CA5"/>
<defs>
<filter id="filter0_f_1717_877" x="15" y="48" width="110" height="72" filterUnits="userSpaceOnUse" color-interpolation-filters="sRGB">
<feFlood flood-opacity="0" result="BackgroundImageFix"/>
<feBlend mode="normal" in="SourceGraphic" in2="BackgroundImageFix" result="shape"/>
<feGaussianBlur stdDeviation="5" result="effect1_foregroundBlur_1717_877"/>
</filter>
<linearGradient id="paint0_linear_1717_877" x1="0.299669" y1="82.916" x2="140.329" y2="82.916" gradientUnits="userSpaceOnUse">
<stop stop-color="#ECECEC"/>
<stop offset="1" stop-color="#DADADA"/>
</linearGradient>
<linearGradient id="paint1_linear_1717_877" x1="25.8369" y1="83.5778" x2="113.863" y2="83.5778" gradientUnits="userSpaceOnUse">
<stop stop-color="#E8ECF8"/>
<stop offset="0.223958" stop-color="#D9DFEE"/>
<stop offset="0.859375" stop-color="#B4BDD8"/>
<stop offset="1" stop-color="#BEC5DC"/>
</linearGradient>
<linearGradient id="paint2_linear_1717_877" x1="114.215" y1="32.0822" x2="110.795" y2="88.237" gradientUnits="userSpaceOnUse">
<stop stop-color="#EDF1FD"/>
<stop offset="1" stop-color="#E1E5F1"/>
</linearGradient>
</defs>
</svg>
